<svg xmlns="http://www.w3.org/2000/svg" version="1.1" xmlns:xlink="http://www.w3.org/1999/xlink" xmlns:svgjs="http://svgjs.dev/svgjs" viewBox="0 0 800 800"><defs><linearGradient x1="50%" y1="0%" x2="50%" y2="100%" id="ccchaos-grad"><stop stop-color="hsl(162, 100%, 58%)" stop-opacity="1" offset="0%"></stop><stop stop-color="hsl(270, 73%, 53%)" stop-opacity="1" offset="100%"></stop></linearGradient></defs><g stroke-width="2" stroke="url(#ccchaos-grad)" fill="none" stroke-linecap="round"><path d="M378.49 104.48C387.85 106.97 397.16 110.24 406.4 114.13 415.66 118.1 424.85 122.46 433.99 127.05 443.16 131.38 452.3 135.77 461.4 140.13 470.57 144.01 479.75 147.8 488.93 151.47 498.22 154.63 507.56 157.72 516.94 160.77 526.48 163.41 536.09 166.15 545.76 169.02 555.59 171.67 565.49 174.61 575.43 177.89 585.5 181.14 595.57 184.84 605.57 189.02 615.61 193.31 625.49 198.15 635.11 203.53 644.61 209.1 653.71 215.22 662.29 221.85 670.53 228.69 678.07 236.02 684.79 243.78 690.94 251.72 696.11 260.05 700.18 268.69 703.52 277.47 705.69 286.52 706.61 295.76 706.79 305.09 705.75 314.58 703.53 324.16 700.75 333.79 696.94 343.47 692.22 353.15 687.3 362.85 681.75 372.53 675.75 382.14 670.01 391.75 664.26 401.05 658.66 410.02 653.72 419 649.12 427.65 644.92 436 641.56 444.36 638.64 452.44 636.13 460.25 634.42 468.13 633.02 475.82 631.85 483.33 631.28 491.01 630.76 498.62 630.18 506.21 629.93 514.08 629.42 522.04 628.56 530.16 627.78 538.66 626.48 547.42 624.62 556.46 622.64 565.96 620 575.77 616.68 585.88 613.13 596.37 608.87 607.07 603.93 617.89 598.73 628.84 592.88 639.67 586.4 650.18 579.7 660.39 572.44 669.95 564.67 678.6 556.74 686.44 548.36 693.03 539.6 698.15 530.74 702.08 521.55 704.34 512.09 704.85 502.58 704.15 492.84 701.81 482.92 697.95 472.99 693.33 462.9 687.65 452.7 681.19 442.49 674.86 432.18 668.41 421.79 662.19 411.41 657.07 401.19 652.82 391.15 649.6 381.1 647.91 371.22 647.29 361.52 647.64 351.8 649.31 342.24 651.62 332.86 654.31 323.44 657.68 314.17 660.93 305.07 663.79 295.92 666.59 286.92 668.55 278.09 669.51 269.21 669.86 260.48 668.96 251.94 666.78 243.35 663.76 234.94 659.46 226.75 653.95 218.52 647.66 210.53 640.31 202.8 632.07 195.07 623.26 187.63 613.77 180.52 603.76 173.46 593.44 166.76 582.78 160.46 571.93 154.26 560.98 148.5 549.95 143.2 538.94 138.05 527.95 133.39 517.04 129.27 506.25 125.32 495.53 121.91 484.94 119.07 474.49 116.41 464.11 114.32 453.86 112.82 443.74 111.48 433.67 110.71 423.69 110.54 413.84 110.48 404 110.98 394.25 112.07 384.6 113.2 374.96 114.83 365.63 116.94 356.65 119.02 347.65 121.53 338.99 124.43 330.67 127.24 322.35 130.4 314.38 133.89 306.78 137.24 299.17 140.88 291.92 144.8 285.05 148.55 278.14 152.56 271.6 156.82 265.39 160.9 259.12 165.23 253.15 169.79 247.46 174.2 241.62 178.86 235.99 183.76 230.54 188.54 224.85 193.6 219.25 198.92 213.71 204.16 207.83 209.69 201.94 215.51 196.02 221.28 189.71 227.37 183.34 233.76 176.92 240.13 170.15 246.82 163.38 253.81 156.67 260.8 149.75 268.1 143.02 275.68 136.59 283.28 130.2 291.15 124.28 299.28 118.97 307.42 113.99 315.81 109.81 324.43 106.52 333.04 103.79 341.88 102.08 350.89 101.44 359.91 101.41 369.11 102.43 378.48 104.48" stroke-dasharray="6 6" transform="rotate(0, 400, 400)" opacity="0.57"></path><path d="M380.02 115.21C389.06 117.66 398.08 120.86 407.06 124.68 416.05 128.58 425.02 132.86 433.96 137.4 442.94 141.71 451.91 146.1 460.87 150.49 469.9 154.44 478.95 158.31 488.02 162.09 497.19 165.38 506.41 168.59 515.67 171.77 525.06 174.52 534.5 177.33 543.99 180.25 553.61 182.9 563.26 185.78 572.91 188.95 582.64 192.02 592.32 195.48 601.89 199.36 611.45 203.28 620.81 207.7 629.86 212.6 638.76 217.64 647.22 223.18 655.15 229.21 662.72 235.41 669.6 242.08 675.67 249.17 681.21 256.41 685.8 264.04 689.36 272.01 692.25 280.09 694.05 288.46 694.69 297.06 694.68 305.74 693.55 314.6 691.33 323.59 688.62 332.63 684.97 341.75 680.49 350.92 675.83 360.11 670.59 369.31 664.91 378.5 659.47 387.69 653.99 396.63 648.63 405.31 643.85 414 639.34 422.44 635.18 430.63 631.76 438.86 628.72 446.87 626.05 454.7 624.1 462.61 622.44 470.39 620.99 478.08 620.1 485.93 619.28 493.78 618.43 501.66 617.92 509.81 617.21 518.08 616.21 526.52 615.32 535.3 614 544.31 612.2 553.58 610.33 563.21 607.88 573.09 604.82 583.18 601.59 593.53 597.72 603.99 593.23 614.44 588.52 624.9 583.19 635.13 577.28 644.94 571.17 654.37 564.51 663.08 557.36 670.85 550.05 677.82 542.3 683.55 534.15 687.87 525.9 691.1 517.31 692.77 508.43 692.83 499.49 691.83 490.29 689.34 480.89 685.48 471.46 681 461.85 675.56 452.1 669.43 442.34 663.45 432.44 657.36 422.44 651.47 412.44 646.57 402.57 642.45 392.84 639.25 383.11 637.43 373.52 636.57 364.09 636.59 354.64 637.85 345.32 639.71 336.16 641.97 326.97 644.92 317.92 647.82 309.03 650.44 300.09 653.11 291.3 655.09 282.66 656.23 273.99 656.9 265.47 656.48 257.13 654.92 248.76 652.65 240.57 649.2 232.59 644.62 224.6 639.32 216.84 633 209.33 625.78 201.86 618.01 194.66 609.5 187.79 600.42 180.99 591 174.54 581.16 168.48 571.04 162.53 560.76 157 550.33 151.93 539.84 147.01 529.32 142.57 518.8 138.64 508.36 134.88 497.95 131.66 487.62 128.98 477.42 126.48 467.27 124.53 457.24 123.16 447.34 121.94 437.48 121.27 427.74 121.19 418.12 121.21 408.53 121.78 399.05 122.91 389.71 124.08 380.36 125.75 371.36 127.86 362.7 129.96 354.03 132.46 345.71 135.33 337.74 138.13 329.75 141.26 322.11 144.69 314.82 148 307.51 151.6 300.54 155.45 293.91 159.14 287.23 163.08 280.86 167.25 274.8 171.25 268.63 175.49 262.72 179.95 257.05 184.25 251.2 188.79 245.52 193.57 239.97 198.21 234.17 203.11 228.43 208.26 222.72 213.31 216.69 218.64 210.64 224.24 204.56 229.78 198.12 235.61 191.64 241.72 185.15 247.81 178.35 254.19 171.59 260.85 164.93 267.51 158.13 274.46 151.54 281.68 145.28 288.9 139.11 296.4 133.44 304.15 128.38 311.9 123.66 319.9 119.72 328.13 116.66 336.36 114.13 344.81 112.58 353.47 112.06 362.12 112.12 370.97 113.17 380.01 115.21" stroke-dasharray="9 0" transform="rotate(4.04, 400, 400)" opacity="0.39"></path><path d="M382.2 125.94C390.93 128.35 399.66 131.48 408.38 135.21 417.11 139.02 425.85 143.23 434.58 147.7 443.35 151.97 452.14 156.35 460.93 160.75 469.78 164.75 478.67 168.71 487.58 172.58 496.58 175.99 505.63 179.33 514.71 182.62 523.89 185.51 533.12 188.42 542.36 191.4 551.69 194.09 561.02 196.97 570.32 200.06 579.65 203.03 588.9 206.32 597.99 209.96 607.03 213.6 615.83 217.66 624.29 222.16 632.57 226.74 640.39 231.79 647.67 237.28 654.59 242.9 660.83 248.96 666.28 255.43 671.23 262.03 675.29 269.01 678.37 276.33 680.85 283.75 682.31 291.47 682.71 299.44 682.53 307.48 681.33 315.74 679.13 324.15 676.5 332.61 673.02 341.19 668.77 349.86 664.38 358.55 659.43 367.3 654.07 376.08 648.92 384.87 643.72 393.48 638.58 401.9 633.97 410.32 629.57 418.57 625.46 426.64 622.02 434.75 618.89 442.72 616.08 450.57 613.92 458.51 612.02 466.39 610.32 474.24 609.15 482.24 608.04 490.28 606.93 498.4 606.16 506.75 605.23 515.24 604.07 523.9 603.06 532.85 601.68 542 599.89 551.35 598.08 560.98 595.76 570.78 592.9 580.71 589.93 590.79 586.38 600.87 582.26 610.84 577.97 620.71 573.11 630.27 567.7 639.32 562.12 647.94 556.02 655.79 549.43 662.69 542.71 668.8 535.54 673.72 527.98 677.3 520.32 679.87 512.31 681.02 503.99 680.69 495.61 679.43 486.95 676.83 478.06 673.02 469.15 668.68 460.02 663.49 450.73 657.69 441.42 652.06 431.96 646.32 422.36 640.74 412.76 636.08 403.25 632.09 393.87 628.91 384.48 626.98 375.2 625.91 366.04 625.64 356.88 626.51 347.84 627.95 338.92 629.78 329.99 632.3 321.18 634.84 312.51 637.19 303.82 639.68 295.26 641.61 286.84 642.84 278.41 643.73 270.12 643.69 262.01 642.65 253.88 641.01 245.93 638.31 238.19 634.56 230.46 630.18 222.95 624.82 215.71 618.58 208.5 611.81 201.57 604.3 194.96 596.17 188.42 587.67 182.24 578.71 176.43 569.4 170.75 559.89 165.47 550.15 160.64 540.28 155.95 530.33 151.73 520.33 148.02 510.34 144.46 500.34 141.42 490.4 138.92 480.54 136.58 470.7 134.77 460.97 133.52 451.35 132.42 441.77 131.86 432.29 131.85 422.96 131.95 413.64 132.58 404.44 133.74 395.39 134.96 386.34 136.65 377.64 138.76 369.29 140.86 360.92 143.35 352.9 146.2 345.21 148.97 337.51 152.06 330.13 155.45 323.09 158.72 316.01 162.26 309.25 166.04 302.79 169.68 296.26 173.55 290 177.64 284.01 181.57 277.9 185.72 271.99 190.08 266.28 194.29 260.38 198.73 254.61 203.38 248.94 207.9 243.02 212.66 237.13 217.65 231.27 222.54 225.09 227.69 218.9 233.08 212.69 238.41 206.16 244.01 199.62 249.87 193.08 255.7 186.31 261.8 179.6 268.17 173.03 274.52 166.38 281.15 159.97 288.04 153.92 294.92 148 302.06 142.58 309.46 137.78 316.85 133.33 324.49 129.65 332.37 126.81 340.23 124.49 348.33 123.1 356.64 122.7 364.95 122.83 373.47 123.91 382.19 125.93" stroke-dasharray="9 9" transform="rotate(8.08, 400, 400)" opacity="0.85"></path><path d="M384.96 136.66C393.38 139.03 401.83 142.09 410.28 145.72 418.75 149.44 427.25 153.56 435.76 157.95 444.29 162.17 452.87 166.52 461.46 170.91 470.1 174.96 478.79 178.97 487.5 182.92 496.28 186.45 505.1 189.92 513.94 193.33 522.86 196.34 531.81 199.37 540.74 202.44 549.73 205.21 558.69 208.11 567.58 211.19 576.47 214.11 585.23 217.28 593.8 220.76 602.29 224.18 610.51 227.97 618.36 232.14 626.02 236.35 633.21 240.97 639.84 246 646.13 251.11 651.75 256.64 656.61 262.56 661.02 268.57 664.57 274.95 667.22 281.67 669.33 288.48 670.49 295.59 670.68 302.97 670.35 310.41 669.1 318.08 666.94 325.94 664.41 333.84 661.09 341.9 657.07 350.1 652.93 358.3 648.28 366.62 643.23 375.03 638.37 383.43 633.43 391.73 628.53 399.9 624.09 408.07 619.82 416.14 615.77 424.1 612.32 432.1 609.13 440.03 606.2 447.89 603.88 455.85 601.77 463.79 599.83 471.75 598.4 479.86 597.03 488.04 595.67 496.31 594.65 504.78 593.5 513.39 592.17 522.16 591.01 531.15 589.54 540.3 587.72 549.6 585.92 559.09 583.69 568.69 580.99 578.31 578.21 587.99 574.91 597.59 571.11 606.98 567.17 616.19 562.71 625.01 557.74 633.26 552.63 641.05 547.02 648.05 540.96 654.09 534.78 659.38 528.16 663.53 521.15 666.43 514.05 668.42 506.59 669.09 498.81 668.43 490.97 666.96 482.85 664.3 474.47 660.55 466.06 656.37 457.43 651.45 448.6 645.97 439.76 640.68 430.73 635.28 421.55 630.02 412.37 625.58 403.25 621.73 394.22 618.58 385.18 616.57 376.24 615.31 367.39 614.77 358.54 615.28 349.79 616.32 341.15 617.74 332.51 619.84 323.97 622.01 315.55 624.06 307.13 626.32 298.82 628.14 290.66 629.38 282.49 630.41 274.46 630.64 266.6 630 258.74 628.9 251.06 626.83 243.59 623.82 236.14 620.26 228.91 615.78 221.94 610.46 215.01 604.65 208.37 598.09 202.04 590.91 195.79 583.36 189.88 575.3 184.35 566.84 178.93 558.15 173.92 549.18 169.33 540.01 164.9 530.73 160.91 521.33 157.41 511.88 154.06 502.4 151.21 492.92 148.88 483.48 146.7 474.05 145.04 464.69 143.91 455.42 142.93 446.17 142.46 437.02 142.53 428 142.71 418.99 143.39 410.1 144.58 401.35 145.83 392.59 147.53 384.18 149.64 376.11 151.74 368.02 154.21 360.25 157.02 352.82 159.76 345.35 162.82 338.19 166.15 331.34 169.38 324.44 172.86 317.82 176.58 311.47 180.16 305.04 183.96 298.84 187.98 292.87 191.84 286.76 195.91 280.83 200.18 275.04 204.31 269.07 208.65 263.19 213.19 257.39 217.6 251.34 222.23 245.32 227.08 239.31 231.82 233.02 236.8 226.72 242.02 220.41 247.16 213.84 252.55 207.27 258.19 200.74 263.77 194.03 269.62 187.43 275.72 180.99 281.79 174.52 288.13 168.33 294.72 162.52 301.28 156.86 308.11 151.72 315.18 147.2 322.24 143.02 329.54 139.59 337.08 136.99 344.61 134.87 352.37 133.64 360.35 133.34 368.33 133.55 376.53 134.66 384.95 136.66" stroke-dasharray="5 10" transform="rotate(12.12, 400, 400)" opacity="0.94"></path><path d="M388.21 147.39C396.32 149.7 404.49 152.68 412.67 156.21 420.87 159.84 429.11 163.85 437.37 168.15 445.66 172.31 453.99 176.61 462.35 180.98 470.74 185.05 479.18 189.1 487.65 193.12 496.16 196.75 504.71 200.32 513.26 203.85 521.86 207 530.47 210.15 539.04 213.32 547.64 216.19 556.18 219.16 564.61 222.26 573.01 225.17 581.26 228.29 589.28 231.66 597.2 234.94 604.82 238.53 612.06 242.44 619.09 246.35 625.65 250.63 631.66 255.28 637.34 259.96 642.37 265.03 646.69 270.46 650.57 275.96 653.67 281.81 655.92 288 657.69 294.24 658.59 300.8 658.59 307.63 658.16 314.51 656.87 321.64 654.76 328.99 652.33 336.37 649.19 343.94 645.4 351.69 641.51 359.44 637.14 367.35 632.39 375.39 627.81 383.44 623.14 391.43 618.47 399.36 614.21 407.3 610.07 415.19 606.1 423.03 602.66 430.91 599.44 438.77 596.43 446.63 593.96 454.56 591.68 462.53 589.54 470.54 587.87 478.68 586.26 486.91 584.67 495.24 583.4 503.73 582.05 512.35 580.54 521.1 579.21 530.01 577.64 539.04 575.76 548.15 573.94 557.38 571.75 566.63 569.14 575.83 566.5 585.01 563.41 594.03 559.86 602.75 556.21 611.25 552.09 619.29 547.5 626.72 542.8 633.68 537.64 639.83 532.04 645.06 526.35 649.57 520.23 653.01 513.73 655.28 507.16 656.75 500.22 657.01 492.96 656.08 485.65 654.45 478.04 651.75 470.16 648.1 462.26 644.09 454.11 639.43 445.75 634.28 437.37 629.32 428.8 624.26 420.05 619.29 411.29 615.08 402.57 611.37 393.92 608.28 385.26 606.2 376.66 604.78 368.15 603.99 359.64 604.17 351.2 604.84 342.87 605.87 334.53 607.56 326.29 609.35 318.16 611.08 310.02 613.07 302.01 614.73 294.12 615.92 286.24 617.01 278.5 617.41 270.93 617.08 263.37 616.38 255.98 614.85 248.8 612.46 241.65 609.62 234.72 605.93 228.05 601.45 221.43 596.53 215.09 590.89 209.05 584.61 203.11 577.99 197.49 570.83 192.24 563.24 187.11 555.41 182.36 547.24 178.04 538.82 173.85 530.27 170.1 521.55 166.82 512.72 163.69 503.83 161.03 494.89 158.87 485.95 156.85 477 155.34 468.08 154.34 459.21 153.46 450.36 153.09 441.58 153.23 432.9 153.47 424.23 154.2 415.66 155.42 407.22 156.7 398.78 158.4 390.65 160.5 382.83 162.58 375 165.03 367.47 167.8 360.24 170.51 352.99 173.52 346 176.8 339.3 179.97 332.53 183.4 326.01 187.05 319.73 190.57 313.36 194.31 307.18 198.25 301.19 202.04 295.06 206.04 289.07 210.23 283.2 214.27 277.14 218.52 271.16 222.95 265.23 227.26 259.08 231.78 252.94 236.49 246.82 241.11 240.45 245.94 234.08 250.99 227.72 255.96 221.15 261.16 214.61 266.6 208.14 271.97 201.54 277.59 195.08 283.45 188.82 289.27 182.57 295.34 176.63 301.65 171.08 307.93 165.71 314.46 160.87 321.23 156.63 327.98 152.74 334.97 149.57 342.2 147.19 349.41 145.27 356.85 144.2 364.52 144 372.19 144.28 380.08 145.41 388.2 147.38" stroke-dasharray="4 7" transform="rotate(16.16, 400, 400)" opacity="0.08"></path><path d="M391.84 158.11C399.65 160.37 407.52 163.26 415.43 166.68 423.34 170.2 431.3 174.11 439.3 178.29 447.31 182.38 455.37 186.62 463.46 190.95 471.58 195.01 479.73 199.1 487.9 203.16 496.1 206.87 504.33 210.54 512.54 214.18 520.78 217.46 529 220.73 537.16 224.01 545.32 226.99 553.39 230.05 561.33 233.21 569.22 236.15 576.92 239.27 584.38 242.58 591.71 245.78 598.73 249.24 605.36 252.97 611.77 256.66 617.72 260.67 623.13 265.01 628.23 269.35 632.71 274.04 636.5 279.06 639.91 284.12 642.59 289.52 644.47 295.23 645.94 300.98 646.61 307.04 646.47 313.38 645.94 319.75 644.64 326.39 642.59 333.27 640.27 340.17 637.3 347.29 633.74 354.61 630.1 361.93 626.01 369.46 621.55 377.16 617.25 384.86 612.83 392.56 608.4 400.25 604.32 407.95 600.32 415.65 596.46 423.35 593.05 431.09 589.81 438.86 586.75 446.65 584.17 454.52 581.74 462.44 579.43 470.43 577.55 478.53 575.73 486.72 573.92 495 572.43 503.4 570.87 511.92 569.18 520.51 567.69 529.22 565.99 538 564.04 546.8 562.17 555.64 559.98 564.44 557.43 573.12 554.89 581.71 551.94 590.07 548.59 598.08 545.18 605.82 541.34 613.05 537.08 619.66 532.73 625.79 527.96 631.14 522.78 635.59 517.52 639.38 511.86 642.17 505.83 643.88 499.74 644.87 493.29 644.79 486.52 643.63 479.71 641.88 472.6 639.19 465.21 635.65 457.79 631.84 450.13 627.44 442.23 622.61 434.32 617.97 426.2 613.23 417.89 608.57 409.57 604.57 401.27 601.01 393.01 597.98 384.74 595.85 376.52 594.3 368.36 593.3 360.21 593.18 352.12 593.5 344.11 594.15 336.11 595.45 328.19 596.86 320.37 598.26 312.56 599.97 304.86 601.42 297.28 602.5 289.72 603.56 282.29 604.06 275.03 603.93 267.79 603.55 260.72 602.43 253.85 600.57 247.03 598.33 240.42 595.33 234.07 591.6 227.77 587.48 221.75 582.68 216.02 577.26 210.39 571.52 205.08 565.24 200.13 558.5 195.29 551.53 190.82 544.19 186.76 536.55 182.83 528.77 179.32 520.76 176.26 512.6 173.35 504.37 170.88 496.03 168.89 487.64 167.05 479.23 165.67 470.8 164.79 462.4 164.03 453.99 163.75 445.62 163.95 437.32 164.25 429.03 165.02 420.81 166.26 412.68 167.55 404.56 169.25 396.71 171.33 389.15 173.4 381.57 175.81 374.26 178.54 367.22 181.21 360.15 184.17 353.31 187.38 346.72 190.51 340.07 193.87 333.62 197.45 327.38 200.91 321.04 204.58 314.86 208.44 308.83 212.17 302.68 216.09 296.63 220.19 290.67 224.16 284.54 228.32 278.46 232.66 272.43 236.87 266.2 241.28 259.99 245.88 253.79 250.37 247.39 255.07 241 259.97 234.65 264.79 228.13 269.82 221.67 275.07 215.31 280.25 208.87 285.67 202.59 291.3 196.55 296.89 190.55 302.72 184.89 308.78 179.63 314.8 174.57 321.06 170.03 327.54 166.08 334.01 162.48 340.71 159.57 347.63 157.41 354.55 155.69 361.69 154.77 369.06 154.68 376.42 155.02 384.01 156.17 391.83 158.11" stroke-dasharray="5 6" transform="rotate(20.200000000000003, 400, 400)" opacity="0.55"></path><path d="M395.73 168.84C403.24 171.04 410.82 173.84 418.43 177.14 426.05 180.55 433.71 184.33 441.41 188.4 449.13 192.39 456.89 196.55 464.67 200.82 472.47 204.86 480.3 208.95 488.13 213.03 495.99 216.81 503.84 220.56 511.67 224.28 519.51 227.68 527.3 231.07 535 234.46 542.7 237.57 550.27 240.73 557.69 243.96 565.04 246.97 572.18 250.12 579.05 253.43 585.8 256.59 592.22 259.97 598.24 263.59 604.06 267.13 609.42 270.95 614.25 275.05 620.78 281.32 630.2 295.4 632.91 303.22 634.11 308.55 634.58 314.18 634.31 320.09 633.71 326.02 632.42 332.22 630.44 338.67 628.24 345.13 625.44 351.83 622.1 358.76 618.7 365.69 614.88 372.85 610.71 380.22 606.67 387.59 602.52 395 598.32 402.44 594.43 409.9 590.58 417.39 586.83 424.93 583.48 432.49 580.25 440.11 577.16 447.79 574.49 455.52 571.94 463.33 569.5 471.22 567.44 479.18 565.43 487.23 563.44 495.35 561.74 503.56 559.98 511.85 558.13 520.18 556.47 528.58 554.64 536.98 552.6 545.36 550.66 553.71 548.45 561.97 545.93 570.04 543.44 577.97 540.6 585.62 537.4 592.87 534.18 599.83 530.57 606.26 526.58 612.06 522.53 617.39 518.09 621.97 513.28 625.69 505.78 629.92 488.91 632.63 479.61 631.11 473.26 629.29 466.62 626.63 459.7 623.22 452.76 619.61 445.56 615.48 438.13 610.96 430.69 606.64 423.02 602.22 415.15 597.84 407.28 594.07 399.41 590.66 391.55 587.7 383.69 585.54 375.86 583.87 368.08 582.69 360.31 582.3 352.58 582.3 344.93 582.61 337.28 583.53 329.71 584.57 322.23 585.64 314.77 587.04 307.41 588.25 300.17 589.17 292.95 590.15 285.87 590.66 278.94 590.66 272.04 590.48 265.32 589.68 258.79 588.23 252.31 586.49 246.04 584.07 240.02 580.98 234.07 577.58 228.37 573.53 222.98 568.9 217.67 563.97 212.67 558.52 208.02 552.61 203.48 546.47 199.3 539.94 195.51 533.08 191.85 526.08 188.58 518.81 185.75 511.35 183.05 503.8 180.78 496.1 178.96 488.31 177.28 480.49 176.04 472.6 175.27 464.69 174.62 456.77 174.43 448.85 174.69 440.96 175.05 433.07 175.85 425.22 177.1 417.42 178.4 409.63 180.09 402.08 182.14 394.76 184.19 387.44 186.56 380.34 189.24 373.47 191.86 366.57 194.76 359.87 197.91 353.38 200.97 346.82 204.27 340.44 207.77 334.22 211.17 327.91 214.77 321.74 218.55 315.68 222.21 309.5 226.05 303.4 230.07 297.37 233.96 291.2 238.03 285.06 242.27 278.96 246.4 272.7 250.71 266.45 255.19 260.23 259.57 253.85 264.14 247.5 268.9 241.21 273.58 234.79 278.46 228.46 283.54 222.26 288.55 216.03 293.77 209.99 299.2 204.2 304.59 198.49 310.19 193.13 316.01 188.18 321.79 183.44 327.8 179.22 334.02 175.57 340.22 172.26 346.65 169.61 353.29 167.67 359.92 166.15 366.77 165.37 373.84 165.37 380.91 165.78 388.2 166.93 395.72 168.83" stroke-dasharray="3 9" transform="rotate(24.24, 400, 400)" opacity="0.45"></path><path d="M399.76 179.56C406.97 181.7 414.23 184.4 421.53 187.57 428.84 190.86 436.2 194.51 443.58 198.45 450.97 202.33 458.4 206.4 465.84 210.59 473.3 214.59 480.76 218.66 488.22 222.74 495.69 226.56 503.14 230.37 510.54 234.16 517.94 237.66 525.27 241.16 532.49 244.65 539.68 247.88 546.74 251.14 553.61 254.46 560.41 257.56 566.99 260.77 573.28 264.1 579.44 267.28 585.27 270.64 590.71 274.19 598.35 279.48 610.8 291.22 615.42 297.73 618.97 304.49 622.34 319.43 622.12 327.6 621.48 333.14 620.2 338.95 618.3 345.02 616.22 351.09 613.6 357.42 610.48 363.99 607.32 370.55 603.76 377.36 599.87 384.41 596.1 391.45 592.2 398.57 588.23 405.75 584.53 412.95 580.85 420.21 577.21 427.53 573.93 434.88 570.74 442.31 567.64 449.8 564.92 457.33 562.29 464.95 559.74 472.63 557.53 480.37 555.36 488.18 553.21 496.05 551.33 503.96 549.4 511.91 547.39 519.87 545.57 527.84 543.61 535.78 541.47 543.63 539.45 551.42 537.19 559.06 534.68 566.45 532.21 573.69 529.44 580.59 526.36 587.06 523.28 593.24 519.85 598.88 516.09 603.89 510.21 610.39 496.67 618.73 489.02 620.35 483.76 620.6 478.19 619.99 472.32 618.52 466.41 616.66 460.22 614.06 453.75 610.81 447.27 607.4 440.52 603.54 433.54 599.34 426.56 595.33 419.34 591.21 411.92 587.12 404.5 583.56 397.06 580.31 389.62 577.42 382.19 575.25 374.77 573.5 367.38 572.16 360.01 571.53 352.67 571.24 345.39 571.24 338.13 571.8 330.93 572.49 323.82 573.23 316.73 574.3 309.73 575.25 302.85 575.98 296 576.81 289.28 577.28 282.71 577.32 276.18 577.26 269.82 576.68 263.65 575.54 257.53 574.19 251.62 572.24 245.95 569.69 240.35 566.89 235 563.51 229.94 559.57 224.97 555.39 220.29 550.7 215.95 545.55 211.72 540.2 207.83 534.45 204.31 528.35 200.91 522.11 197.89 515.58 195.28 508.82 192.79 501.97 190.72 494.93 189.07 487.76 187.55 480.54 186.45 473.22 185.79 465.84 185.25 458.44 185.13 450.99 185.45 443.54 185.86 436.08 186.69 428.62 187.94 421.17 189.25 413.73 190.92 406.48 192.94 399.42 194.95 392.36 197.28 385.47 199.89 378.78 202.46 372.05 205.3 365.49 208.37 359.09 211.37 352.64 214.59 346.33 218.01 340.14 221.34 333.88 224.86 327.71 228.56 321.63 232.15 315.46 235.91 309.34 239.84 303.28 243.66 297.09 247.64 290.94 251.78 284.83 255.82 278.58 260.03 272.35 264.4 266.17 268.68 259.87 273.13 253.61 277.76 247.43 282.3 241.18 287.04 235.03 291.95 229.05 296.81 223.06 301.85 217.29 307.09 211.8 312.28 206.41 317.68 201.37 323.28 196.75 328.84 192.35 334.61 188.44 340.58 185.1 346.53 182.08 352.69 179.69 359.06 177.97 365.42 176.63 371.99 175.99 378.77 176.08 385.55 176.54 392.54 177.7 399.75 179.56" stroke-dasharray="9 5" transform="rotate(28.28, 400, 400)" opacity="0.21"></path><path d="M403.8 190.29C410.7 192.35 417.64 194.95 424.62 198 431.6 201.15 438.62 204.66 445.66 208.46 452.7 212.22 459.77 216.17 466.84 220.27 473.92 224.2 481 228.22 488.05 232.28 495.1 236.11 502.11 239.95 509.05 243.79 515.99 247.37 522.83 250.95 529.55 254.54 536.22 257.88 542.74 261.24 549.07 264.65 555.31 267.85 561.31 271.13 567.03 274.52 572.62 277.74 577.88 281.1 582.75 284.63 589.57 289.85 600.56 301.22 604.55 307.45 607.58 313.87 610.28 327.98 609.91 335.69 609.24 340.9 607.99 346.37 606.19 352.11 604.23 357.83 601.79 363.82 598.89 370.05 595.95 376.27 592.65 382.75 589.03 389.48 585.51 396.21 581.86 403.03 578.13 409.93 574.63 416.84 571.11 423.83 567.61 430.9 564.42 437.99 561.28 445.16 558.21 452.4 555.46 459.67 552.77 467.01 550.15 474.4 547.82 481.83 545.52 489.31 543.23 496.82 541.2 504.34 539.11 511.86 536.97 519.35 535 526.82 532.92 534.2 530.69 541.46 528.58 548.62 526.27 555.58 523.74 562.26 521.27 568.76 518.55 574.9 515.55 580.61 510.94 588.45 500.17 600.62 494.01 604.66 487.48 607.25 472.86 607.84 464.79 605.89 459.29 604.02 453.51 601.51 447.48 598.42 441.42 595.23 435.12 591.64 428.59 587.74 422.04 584.03 415.28 580.21 408.31 576.39 401.34 573.05 394.34 569.95 387.33 567.16 380.33 565 373.32 563.18 366.35 561.71 359.38 560.87 352.45 560.33 345.57 560.04 338.71 560.26 331.9 560.62 325.18 561.04 318.48 561.79 311.87 562.46 305.38 562.97 298.92 563.62 292.58 563.98 286.39 564 280.25 563.99 274.26 563.53 268.46 562.61 259.95 560.75 244.14 554.14 236.93 549.39 232.3 545.86 227.96 541.84 223.93 537.39 220 532.76 216.41 527.73 213.16 522.35 210.03 516.84 207.26 511.03 204.87 504.95 202.6 498.79 200.71 492.41 199.23 485.86 197.86 479.26 196.9 472.52 196.35 465.67 195.9 458.81 195.86 451.86 196.23 444.86 196.68 437.85 197.53 430.79 198.78 423.72 200.08 416.64 201.73 409.7 203.7 402.92 205.68 396.12 207.95 389.47 210.5 382.95 213 376.42 215.77 370.01 218.76 363.72 221.68 357.39 224.83 351.16 228.16 345.03 231.41 338.83 234.85 332.71 238.45 326.65 241.96 320.51 245.64 314.42 249.48 308.38 253.21 302.23 257.1 296.12 261.15 290.04 265.1 283.87 269.21 277.73 273.47 271.64 277.64 265.47 281.98 259.37 286.47 253.37 290.89 247.33 295.49 241.43 300.25 235.7 304.95 230.01 309.83 224.55 314.89 219.37 319.9 214.32 325.1 209.63 330.49 205.35 335.83 201.29 341.38 197.72 347.11 194.68 352.82 191.95 358.73 189.81 364.84 188.3 370.93 187.14 377.22 186.63 383.71 186.8 390.2 187.31 396.89 188.47 403.79 190.28" stroke-dasharray="10 3" transform="rotate(32.32, 400, 400)" opacity="0.26"></path><path d="M407.71 201.01C414.29 203 420.9 205.49 427.53 208.4 434.17 211.42 440.84 214.78 447.51 218.42 454.19 222.05 460.88 225.87 467.55 229.84 474.23 233.7 480.89 237.65 487.5 241.65 494.11 245.47 500.66 249.31 507.12 253.17 513.57 256.8 519.91 260.45 526.1 264.1 532.25 267.53 538.23 270.99 544.01 274.48 549.7 277.78 555.14 281.14 560.3 284.58 567.69 289.57 580.43 300 585.63 305.54 590.05 311.15 596.05 323.34 597.55 329.98 598.17 336.8 596.4 351.64 594.1 359.67 592.27 365.09 590 370.76 587.31 376.67 584.6 382.58 581.55 388.75 578.19 395.15 574.93 401.56 571.52 408.07 568.02 414.67 564.71 421.27 561.37 427.96 558.02 434.72 554.93 441.5 551.87 448.36 548.84 455.28 546.09 462.21 543.38 469.21 540.71 476.23 538.3 483.27 535.9 490.34 533.51 497.4 531.34 504.44 529.13 511.46 526.87 518.4 524.78 525.29 522.58 532.07 520.27 538.67 518.07 545.16 515.7 551.41 513.15 557.37 509.32 565.82 500.56 580.21 495.56 585.86 490.28 590.37 478.33 595.49 471.65 596 464.66 595.27 449.32 590.17 441 586.06 435.36 583.09 429.48 579.77 423.38 576.17 417.27 572.74 410.95 569.22 404.42 565.67 397.9 562.54 391.34 559.6 384.77 556.91 378.2 554.77 371.63 552.91 365.08 551.33 358.54 550.32 352.03 549.55 345.56 549 339.12 548.93 332.72 548.97 326.41 549.08 320.12 549.52 313.92 549.91 307.83 550.18 298.8 550.72 281.5 550.53 273.3 549.54 265.37 548.01 250.67 542.48 243.99 538.47 237.7 533.77 226.71 522.04 222.09 515.14 217.96 507.73 211.61 491.36 209.45 482.55 208.23 476.56 207.39 470.4 206.95 464.09 206.59 457.77 206.61 451.32 207.03 444.78 207.51 438.24 208.38 431.61 209.62 424.91 210.91 418.21 212.53 411.61 214.45 405.11 216.38 398.61 218.59 392.2 221.06 385.89 223.5 379.57 226.18 373.33 229.08 367.18 231.92 361 234.98 354.89 238.22 348.85 241.38 342.76 244.72 336.72 248.23 330.73 251.65 324.68 255.24 318.66 258.97 312.69 262.62 306.64 266.42 300.63 270.36 294.66 274.21 288.62 278.21 282.62 282.36 276.7 286.43 270.73 290.65 264.84 295.02 259.08 299.31 253.3 303.77 247.69 308.38 242.26 312.93 236.9 317.65 231.78 322.53 226.96 327.37 222.27 332.38 217.94 337.56 214.01 342.7 210.3 348.03 207.05 353.53 204.32 359 201.87 364.67 199.97 370.51 198.67 376.33 197.68 382.35 197.3 388.55 197.55 394.75 198.1 401.13 199.25 407.7 201.01" stroke-dasharray="6 9" transform="rotate(36.36, 400, 400)" opacity="0.83"></path><path d="M411.38 211.74C417.62 213.65 423.89 216.02 430.16 218.79 436.44 221.67 442.74 224.87 449.03 228.34 461.61 235.25 474.16 242.87 486.49 250.86 498.77 258.22 510.73 265.74 522.12 273.32 533.31 280.12 543.73 287.07 553.08 294.22 561.96 300.77 569.52 307.76 575.47 315.28 580.7 322.46 584.13 330.38 585.6 339.07 586.31 347.62 585.11 357.07 582.03 367.4 580.34 372.55 578.24 377.94 575.76 383.56 573.26 389.17 570.45 395.02 567.35 401.1 564.33 407.19 561.16 413.37 557.89 419.63 554.79 425.9 551.62 432.25 548.44 438.67 542.73 451.53 537.03 464.65 531.42 477.83 526.73 490.99 521.98 504.1 517.1 516.84 512.86 529.3 508.18 541.07 502.96 551.7 498.03 561.57 492.29 569.82 485.69 576.02 479.14 580.96 471.59 583.54 463.07 583.58 454.5 582.45 444.94 579.08 434.47 573.74 429.22 570.99 423.74 567.93 418.06 564.62 412.37 561.48 406.48 558.23 400.4 554.94 394.32 552.02 388.2 549.25 382.06 546.67 375.94 544.56 369.8 542.68 363.68 541.03 351.48 539.2 339.39 538.07 327.58 537.38 315.88 537.93 304.53 538.17 293.72 537.71 283.09 537.51 273.08 535.99 263.9 533.01 255 529.68 247.01 524.7 240.12 518.17 233.6 511.19 228.25 502.8 224.25 493.23 220.63 483.4 218.37 472.6 217.58 461.07 217.31 455.28 217.4 449.34 217.85 443.26 218.36 437.19 219.23 430.99 220.46 424.69 221.73 418.39 223.31 412.13 225.18 405.94 227.05 399.75 229.19 393.61 231.57 387.54 236.26 375.36 241.85 363.37 248.17 351.61 254.24 339.69 260.99 327.89 268.31 316.27 275.33 304.45 282.93 292.78 291.05 281.42 298.89 269.98 307.31 259 316.28 248.78 325.04 238.87 334.42 230.07 344.41 222.74 354.26 216.24 364.79 211.59 375.96 209.08 381.52 208.26 387.26 207.99 393.16 208.31 399.06 208.89 405.13 210.03 411.37 211.73" stroke-dasharray="3 0" transform="rotate(40.400000000000006, 400, 400)" opacity="0.66"></path><path d="M414.68 222.46C426.47 226.28 438.31 231.67 450.08 238.23 461.85 244.83 473.53 252.15 484.92 259.9 496.25 267.15 507.21 274.62 517.56 282.18 527.7 289.08 537.06 296.14 545.37 303.37 553.26 310.05 559.89 317.09 565.03 324.56 569.56 331.7 572.45 339.45 573.57 347.87 574.08 356.13 572.88 365.18 569.99 375.03 566.81 384.82 562.26 395.47 556.51 406.98 551.05 418.49 545.07 430.35 538.86 442.4 533.38 454.47 527.81 466.71 522.26 478.9 517.51 491.04 512.65 503 507.65 514.47 503.24 525.63 498.44 536.01 493.18 545.22 488.22 553.7 482.57 560.63 476.19 565.65 469.89 569.59 462.72 571.42 454.71 571.02 446.67 569.69 437.75 566.42 428.01 561.45 418.23 556.44 407.65 550.55 396.36 544.22 385.06 539.15 373.64 534.61 362.27 530.8 350.95 528.67 339.73 527.11 328.79 525.93 317.95 525.91 307.46 525.66 297.48 524.89 287.69 524.47 278.49 522.99 270.08 520.3 261.92 517.41 254.63 513.1 248.38 507.41 242.45 501.39 237.63 494.05 234.06 485.56 230.83 476.85 228.86 467.15 228.26 456.66 227.94 446.09 228.93 434.84 231.3 423.06 233.8 411.27 237.45 399.52 242.04 387.93 246.57 376.3 251.95 364.75 258.02 353.36 263.89 341.87 270.42 330.45 277.49 319.22 284.29 307.86 291.66 296.69 299.51 285.87 307.11 275.08 315.26 264.8 323.91 255.31 332.36 246.19 341.39 238.16 350.96 231.56 360.41 225.74 370.46 221.65 381.09 219.54 391.67 218.45 402.88 219.4 414.67 222.46" stroke-dasharray="6 6" transform="rotate(44.44, 400, 400)" opacity="0.97"></path><path d="M417.5 233.19C428.57 236.81 439.64 241.89 450.58 248.07 461.52 254.33 472.3 261.33 482.74 268.78 493.12 275.85 503.07 283.19 512.39 290.68 521.52 297.61 529.86 304.71 537.19 311.96 544.15 318.73 549.94 325.81 554.34 333.23 558.24 340.34 560.66 347.97 561.5 356.14 561.84 364.16 560.67 372.85 557.99 382.23 555.08 391.55 550.93 401.64 545.67 412.47 540.65 423.3 535.11 434.4 529.28 445.6 524.06 456.8 518.67 468.08 513.24 479.21 508.48 490.25 503.57 501 498.52 511.18 493.99 521.04 489.12 530.06 483.85 537.91 478.87 545.1 473.31 550.82 467.13 554.79 461.06 557.88 454.24 559.09 446.69 558.36 439.14 556.91 430.81 553.79 421.75 549.2 412.67 544.65 402.87 539.29 392.43 533.49 381.99 528.78 371.44 524.43 360.96 520.63 350.51 518.27 340.18 516.36 330.12 514.74 320.15 514.19 310.52 513.48 301.4 512.36 292.43 511.67 284.04 510.12 276.4 507.58 268.99 504.98 262.39 501.17 256.76 496.14 251.42 490.9 247.11 484.45 243.95 476.91 241.09 469.2 239.4 460.51 238.97 450.98 238.79 441.4 239.83 431.07 242.14 420.12 244.58 409.16 248.08 398.13 252.47 387.13 256.81 376.13 261.96 365.12 267.77 354.22 273.42 343.26 279.69 332.35 286.48 321.63 293.05 310.87 300.16 300.31 307.71 290.15 315.06 280.1 322.91 270.59 331.21 261.89 339.35 253.59 348.01 246.35 357.14 240.48 366.17 235.33 375.74 231.78 385.81 230.05 395.84 229.22 406.42 230.24 417.5 233.19" stroke-dasharray="4 7" transform="rotate(48.48, 400, 400)" opacity="0.10"></path><path d="M419.75 243.91C430.09 247.33 440.36 252.09 450.45 257.88 460.53 263.78 470.4 270.4 479.89 277.51 489.32 284.34 498.28 291.49 506.61 298.81 514.76 305.69 522.14 312.76 528.56 319.97 534.65 326.78 539.66 333.85 543.42 341.2 546.76 348.26 548.78 355.75 549.38 363.69 549.6 371.47 548.47 379.82 546.01 388.74 543.37 397.61 539.62 407.12 534.83 417.24 530.25 427.37 525.13 437.66 519.7 447.97 514.76 458.26 509.6 468.51 504.33 478.54 499.62 488.44 494.74 497.97 489.7 506.87 485.11 515.44 480.21 523.17 474.97 529.75 470.01 535.76 464.55 540.41 458.57 543.49 452.7 545.85 446.2 546.57 439.09 545.61 431.99 544.12 424.22 541.19 415.82 536.99 407.41 532.89 398.36 528.05 388.75 522.77 379.15 518.41 369.46 514.27 359.86 510.53 350.28 508 340.83 505.8 331.65 503.82 322.56 502.8 313.8 501.65 305.52 500.19 297.39 499.18 289.8 497.49 282.91 494.99 276.23 492.54 270.31 489.07 265.29 484.55 260.52 479.92 256.7 474.2 253.94 467.48 251.44 460.65 250.01 452.86 249.73 444.24 249.67 435.57 250.74 426.14 252.98 416.03 255.33 405.92 258.67 395.64 262.85 385.33 266.99 375.01 271.89 364.64 277.42 354.34 282.81 344.02 288.81 333.74 295.3 323.66 301.6 313.6 308.41 303.77 315.64 294.37 322.7 285.12 330.22 276.45 338.15 268.58 345.95 261.12 354.21 254.68 362.88 249.52 371.47 245.02 380.54 241.99 390.02 240.61 399.48 240.01 409.41 241.09 419.75 243.91" stroke-dasharray="9 1" transform="rotate(52.52, 400, 400)" opacity="0.57"></path><path d="M421.36 254.64C430.94 257.84 440.4 262.27 449.63 267.65 458.85 273.16 467.8 279.38 476.36 286.1 484.84 292.62 492.85 299.49 500.23 306.58 507.44 313.32 513.92 320.27 519.5 327.37 524.81 334.13 529.12 341.13 532.3 348.35 535.15 355.33 536.82 362.65 537.25 370.33 537.37 377.87 536.31 385.87 534.07 394.32 531.7 402.72 528.32 411.64 523.99 421.04 519.83 430.44 515.15 439.89 510.11 449.26 505.48 458.61 500.58 467.82 495.53 476.72 490.93 485.49 486.14 493.82 481.17 501.47 476.59 508.84 471.72 515.35 466.56 520.79 461.64 525.75 456.31 529.47 450.54 531.79 444.89 533.56 438.71 533.9 432.01 532.8 425.34 531.33 418.1 528.63 410.33 524.83 402.55 521.16 394.24 516.83 385.44 512.04 376.64 508.04 367.81 504.14 359.07 500.49 350.36 497.86 341.78 495.43 333.48 493.17 325.25 491.74 317.35 490.2 309.9 488.41 302.59 487.08 295.79 485.2 289.65 482.67 283.68 480.27 278.42 477.02 273.98 472.88 269.76 468.7 266.41 463.58 264.02 457.56 261.86 451.46 260.67 444.48 260.54 436.69 260.59 428.87 261.66 420.29 263.82 411.03 266.08 401.76 269.24 392.28 273.18 382.71 277.1 373.15 281.73 363.51 286.96 353.91 292.08 344.32 297.76 334.79 303.91 325.46 309.92 316.19 316.4 307.18 323.28 298.61 330.01 290.24 337.17 282.44 344.7 275.43 352.11 268.81 359.94 263.16 368.13 258.7 376.25 254.82 384.78 252.28 393.67 251.22 402.53 250.83 411.78 251.96 421.36 254.64" stroke-dasharray="4 0" transform="rotate(56.56, 400, 400)" opacity="0.61"></path><path d="M422.28 265.36C431.08 268.34 439.71 272.43 448.07 277.39 456.43 282.49 464.48 288.28 472.12 294.55 479.69 300.71 486.78 307.24 493.26 314 499.59 320.52 505.23 327.26 510.04 334.15 514.63 340.78 518.32 347.62 521 354.64 523.42 361.47 524.81 368.58 525.1 375.95 525.16 383.21 524.18 390.82 522.16 398.77 520.05 406.68 517.03 414.98 513.15 423.63 509.41 432.28 505.14 440.88 500.52 449.3 496.22 457.7 491.62 465.86 486.82 473.65 482.4 481.32 477.75 488.49 472.93 494.98 468.41 501.23 463.64 506.65 458.61 511.07 451.2 516.58 434.72 521.08 425.51 519.96 419.26 518.56 412.54 516.11 405.38 512.71 398.22 509.47 390.6 505.62 382.6 501.32 374.59 497.66 366.59 494.01 358.7 490.51 350.83 487.83 343.12 485.26 335.68 482.79 328.3 481.02 321.23 479.14 314.61 477.07 308.09 475.43 302.06 473.35 296.63 470.75 289.04 466.75 277.7 455.16 274.22 447.39 272.36 441.91 271.4 435.64 271.39 428.62 271.53 421.58 272.6 413.82 274.66 405.4 276.81 396.98 279.78 388.32 283.47 379.55 287.15 370.8 291.49 361.96 296.39 353.16 301.21 344.39 306.55 335.68 312.34 327.19 318.02 318.79 324.13 310.67 330.61 303 336.98 295.53 343.74 288.63 350.83 282.49 357.83 276.71 365.19 271.83 372.86 268.03 380.48 264.74 388.44 262.65 396.7 261.89 404.93 261.69 413.48 262.83 422.28 265.36" stroke-dasharray="6 4" transform="rotate(60.599999999999994, 400, 400)" opacity="0.53"></path><path d="M422.48 276.09C430.48 278.84 438.28 282.57 445.78 287.1 453.27 291.77 460.45 297.09 467.2 302.88 473.89 308.62 480.11 314.73 485.74 321.1 491.26 327.3 496.13 333.74 500.24 340.32 504.18 346.72 507.32 353.31 509.57 360.05 511.61 366.65 512.76 373.46 512.94 380.46 512.97 387.38 512.08 394.56 510.28 401.97 508.43 409.35 505.76 417.01 502.3 424.89 498.97 432.77 495.12 440.49 490.92 447.97 486.96 455.42 482.69 462.57 478.2 469.29 474 475.91 469.56 482.01 464.94 487.44 460.57 492.67 455.95 497.12 451.1 500.67 443.95 505.07 428.27 508.32 419.64 507.12 413.82 505.83 407.6 503.65 401.04 500.65 394.48 497.82 387.56 494.42 380.32 490.59 373.08 487.29 365.89 483.91 358.83 480.58 351.79 477.91 344.91 475.27 338.31 472.66 331.75 470.64 325.51 468.51 319.67 466.2 311.28 463.15 297.26 455.31 291.91 450.13 287.46 444.38 282.57 429.5 282.28 420.36 282.5 414.03 283.56 407.05 285.5 399.47 287.52 391.88 290.3 384.06 293.72 376.14 297.14 368.24 301.17 360.26 305.71 352.32 310.2 344.43 315.18 336.62 320.57 329.04 325.87 321.56 331.59 314.37 337.63 307.62 343.6 301.08 349.92 295.08 356.52 289.79 363.06 284.83 369.92 280.69 377.03 277.52 384.11 274.79 391.48 273.12 399.07 272.61 406.65 272.58 414.47 273.72 422.48 276.09" stroke-dasharray="8 6" transform="rotate(64.64, 400, 400)" opacity="0.68"></path><path d="M421.94 286.81C429.13 289.32 436.1 292.7 442.76 296.79 449.4 301.01 455.71 305.84 461.61 311.11 467.46 316.37 472.86 322.01 477.71 327.91 482.47 333.7 486.64 339.74 490.13 345.93 493.49 351.99 496.14 358.23 498.01 364.59 499.74 370.85 500.68 377.28 500.81 383.84 500.81 390.34 500.03 397.03 498.45 403.85 496.84 410.66 494.5 417.63 491.46 424.72 488.52 431.81 485.09 438.67 481.31 445.22 477.71 451.75 473.8 457.93 469.65 463.66 465.72 469.3 461.55 474.42 457.19 478.9 450.82 485.04 437.21 493.16 429.9 494.9 422.45 495.47 406.2 492.19 397.38 488.65 391.42 486.2 385.17 483.25 378.68 479.87 372.2 476.91 365.78 473.82 359.53 470.7 353.29 468.1 347.23 465.46 341.43 462.79 332.94 459.45 317.84 452.48 311.46 448.52 305.74 444.44 297.38 434.03 294.93 427.52 293.34 420.45 294.01 403.45 296.34 393.56 298.22 386.79 300.78 379.83 303.92 372.78 307.07 365.76 310.77 358.67 314.93 351.65 319.07 344.68 323.65 337.81 328.61 331.18 333.51 324.64 338.78 318.4 344.35 312.59 349.87 306.97 355.7 301.86 361.78 297.4 367.82 293.22 374.13 289.77 380.65 287.2 387.15 284.97 393.88 283.68 400.78 283.4 407.67 283.5 414.75 284.62 421.94 286.81" stroke-dasharray="10 5" transform="rotate(68.68, 400, 400)" opacity="0.99"></path><path d="M420.7 297.54C433.45 302.26 445.2 309.84 455.42 319.25 465.49 328.72 473.79 339.54 479.76 351 485.35 362.15 488.44 374 488.69 386.11 488.64 398.08 485.96 410.57 480.62 423.15 475.58 435.72 468.85 447.14 461.16 456.83 454.11 466.27 446.06 473.59 437.36 478.18 429.11 482.21 419.89 483.37 409.92 481.51 400.08 479.56 389.24 475.3 377.73 469.14 366.23 464.28 355.16 458.81 345.09 453.17 335.13 448.99 326.35 444.11 319.34 438.38 312.61 433.31 307.81 426.66 305.45 418.35 303.44 410.12 303.89 399.95 307.18 388.02 310.66 376.09 316.51 363.6 324.05 351.39 331.52 339.37 340.62 327.93 350.77 318 360.78 308.7 371.92 301.43 383.71 297.05 395.44 293.81 407.94 293.81 420.7 297.54" stroke-dasharray="4 7" transform="rotate(72.72, 400, 400)" opacity="0.45"></path><path d="M418.78 308.26C429.89 312.43 440 319.06 448.68 327.31 457.25 335.69 464.23 345.35 469.18 355.62 473.87 365.74 476.44 376.47 476.61 387.37 476.59 398.18 474.34 409.3 469.78 420.25 465.45 431.21 459.55 440.91 452.71 448.94 446.33 456.8 439 462.72 431.06 466.31 423.47 469.55 415.05 470.41 406.07 468.8 397.19 467.21 387.57 463.67 377.51 458.42 367.45 454.15 357.9 449.12 349.32 443.78 340.81 439.53 333.4 434.6 327.55 428.96 321.9 423.89 317.95 417.57 316.1 410 314.5 402.52 315.03 393.53 318.02 383.16 321.16 372.8 326.37 362.11 333.07 351.77 339.74 341.6 347.85 332.06 356.89 323.92 365.85 316.29 375.79 310.46 386.24 307.11 396.66 304.63 407.67 304.88 418.78 308.26" stroke-dasharray="3 7" transform="rotate(76.76, 400, 400)" opacity="0.52"></path><path d="M416.26 318.99C425.72 322.59 434.24 328.26 441.48 335.32 448.64 342.54 454.4 350.92 458.45 359.87 462.34 368.76 464.45 378.21 464.58 387.73 464.6 397.22 462.75 406.87 458.94 416.21 455.29 425.54 450.24 433.64 444.3 440.19 438.68 446.64 432.16 451.39 425.11 454.2 418.29 456.82 410.79 457.5 402.87 456.18 395.03 454.95 386.65 452.08 378.01 447.69 369.37 444.02 361.3 439.53 354.12 434.61 347 430.48 340.86 425.69 336.09 420.31 331.45 415.37 328.26 409.47 326.86 402.66 325.63 395.95 326.21 388.09 328.86 379.26 331.64 370.43 336.18 361.49 342 352.99 347.82 344.61 354.89 336.89 362.75 330.42 370.57 324.35 379.22 319.82 388.27 317.37 397.31 315.54 406.79 315.98 416.26 318.99" stroke-dasharray="1 11" transform="rotate(80.80000000000001, 400, 400)" opacity="0.75"></path><path d="M413.2 329.71C421.04 332.73 428.02 337.43 433.9 343.29 439.72 349.3 444.38 356.32 447.62 363.83 450.77 371.36 452.49 379.36 452.61 387.39 452.67 395.42 451.2 403.52 448.1 411.24 445.11 418.96 440.91 425.55 435.91 430.79 431.11 435.98 425.52 439.75 419.44 441.95 413.53 444.08 407.05 444.66 400.27 443.66 393.55 442.77 386.44 440.53 379.23 436.97 372.01 433.89 365.35 430.01 359.51 425.65 353.7 421.82 348.75 417.36 344.97 412.43 341.26 407.8 338.77 402.45 337.74 396.47 336.83 390.57 337.41 383.87 339.7 376.55 342.08 369.22 345.92 361.97 350.83 355.2 355.76 348.53 361.73 342.5 368.36 337.56 374.98 332.9 382.27 329.52 389.86 327.83 397.46 326.57 405.37 327.11 413.2 329.71" stroke-dasharray="5 0" transform="rotate(84.84, 400, 400)" opacity="0.71"></path><path d="M409.72 340.44C422.16 345.52 431.65 355.65 436.76 367.62 441.66 379.74 442.13 393.37 437.26 405.63 432.66 417.88 424.11 426.25 414.04 429.73 404.33 433.14 392.72 432.04 381.12 426.24 369.51 421.67 360 414.1 354.17 405.3 348.51 397.28 346.82 386.86 350.54 375.16 354.49 363.46 363.06 352.71 373.75 345.37 384.46 338.72 397.29 336.43 409.72 340.44" stroke-dasharray="1 11" transform="rotate(88.88, 400, 400)" opacity="0.53"></path><path d="M405.93 351.16C415.17 354.96 422.15 362.45 425.9 371.35 429.55 380.39 429.97 390.59 426.42 399.7 423.02 408.81 416.54 415 408.83 417.63 401.3 420.31 392.37 419.71 383.62 415.52 374.86 412.01 367.86 405.96 363.69 398.89 359.59 392.24 358.48 383.96 361.38 375.19 364.42 366.41 370.91 358.79 378.96 353.87 387.05 349.32 396.68 347.99 405.93 351.16" stroke-dasharray="2 8" transform="rotate(92.92, 400, 400)" opacity="0.49"></path><path d="M401.94 361.89C414.14 367.15 420.22 381.74 415.58 393.79 411.2 405.83 398.41 410.41 386.65 404.79 374.88 400.36 368.28 388.35 372.22 376.63 376.4 364.89 389.72 357.74 401.94 361.89" stroke-dasharray="0 8" transform="rotate(96.96, 400, 400)" opacity="0.46"></path></g></svg>