<svg xmlns="http://www.w3.org/2000/svg" version="1.1" xmlns:xlink="http://www.w3.org/1999/xlink" xmlns:svgjs="http://svgjs.dev/svgjs" viewBox="0 0 800 800"><g fill="none" stroke-width="3" stroke="hsl(105, 69%, 30%)" stroke-linecap="round"><line x1="103" y1="400" x2="697" y2="400" transform="rotate(0, 400, 400)" opacity="0.24"></line><line x1="489" y1="400" x2="311" y2="400" transform="rotate(4, 400, 400)" opacity="0.24"></line><line x1="172.5" y1="400" x2="627.5" y2="400" transform="rotate(8, 400, 400)" opacity="0.45"></line><line x1="212.5" y1="400" x2="587.5" y2="400" transform="rotate(12, 400, 400)" opacity="0.56"></line><line x1="655.5" y1="400" x2="144.5" y2="400" transform="rotate(16, 400, 400)" opacity="0.41"></line><line x1="647" y1="400" x2="153" y2="400" transform="rotate(20, 400, 400)" opacity="0.67"></line><line x1="202" y1="400" x2="598" y2="400" transform="rotate(24, 400, 400)" opacity="0.60"></line><line x1="48.5" y1="400" x2="751.5" y2="400" transform="rotate(28, 400, 400)" opacity="0.11"></line><line x1="46.5" y1="400" x2="753.5" y2="400" transform="rotate(32, 400, 400)" opacity="0.66"></line><line x1="422" y1="400" x2="378" y2="400" transform="rotate(36, 400, 400)" opacity="0.53"></line><line x1="623.5" y1="400" x2="176.5" y2="400" transform="rotate(40, 400, 400)" opacity="0.86"></line><line x1="431.5" y1="400" x2="368.5" y2="400" transform="rotate(44, 400, 400)" opacity="0.79"></line><line x1="517.5" y1="400" x2="282.5" y2="400" transform="rotate(48, 400, 400)" opacity="0.92"></line><line x1="436.5" y1="400" x2="363.5" y2="400" transform="rotate(52, 400, 400)" opacity="0.74"></line><line x1="468" y1="400" x2="332" y2="400" transform="rotate(56, 400, 400)" opacity="0.17"></line><line x1="150.5" y1="400" x2="649.5" y2="400" transform="rotate(60, 400, 400)" opacity="0.42"></line><line x1="129.5" y1="400" x2="670.5" y2="400" transform="rotate(64, 400, 400)" opacity="0.22"></line><line x1="742.5" y1="400" x2="57.5" y2="400" transform="rotate(68, 400, 400)" opacity="0.56"></line><line x1="523.5" y1="400" x2="276.5" y2="400" transform="rotate(72, 400, 400)" opacity="0.07"></line><line x1="571.5" y1="400" x2="228.5" y2="400" transform="rotate(76, 400, 400)" opacity="0.59"></line><line x1="554" y1="400" x2="246" y2="400" transform="rotate(80, 400, 400)" opacity="0.76"></line><line x1="626" y1="400" x2="174" y2="400" transform="rotate(84, 400, 400)" opacity="0.69"></line><line x1="113" y1="400" x2="687" y2="400" transform="rotate(88, 400, 400)" opacity="0.94"></line><line x1="300" y1="400" x2="500" y2="400" transform="rotate(92, 400, 400)" opacity="0.34"></line><line x1="294" y1="400" x2="506" y2="400" transform="rotate(96, 400, 400)" opacity="0.86"></line><line x1="46" y1="400" x2="754" y2="400" transform="rotate(100, 400, 400)" opacity="0.23"></line><line x1="140.5" y1="400" x2="659.5" y2="400" transform="rotate(104, 400, 400)" opacity="0.35"></line><line x1="605.5" y1="400" x2="194.5" y2="400" transform="rotate(108, 400, 400)" opacity="0.66"></line><line x1="292" y1="400" x2="508" y2="400" transform="rotate(112, 400, 400)" opacity="0.89"></line><line x1="337.5" y1="400" x2="462.5" y2="400" transform="rotate(116, 400, 400)" opacity="0.62"></line><line x1="731" y1="400" x2="69" y2="400" transform="rotate(120, 400, 400)" opacity="0.86"></line><line x1="431" y1="400" x2="369" y2="400" transform="rotate(124, 400, 400)" opacity="0.15"></line><line x1="202.5" y1="400" x2="597.5" y2="400" transform="rotate(128, 400, 400)" opacity="0.38"></line><line x1="61.5" y1="400" x2="738.5" y2="400" transform="rotate(132, 400, 400)" opacity="0.45"></line><line x1="125.5" y1="400" x2="674.5" y2="400" transform="rotate(136, 400, 400)" opacity="0.98"></line><line x1="364" y1="400" x2="436" y2="400" transform="rotate(140, 400, 400)" opacity="0.25"></line><line x1="290.5" y1="400" x2="509.5" y2="400" transform="rotate(144, 400, 400)" opacity="0.15"></line><line x1="559.5" y1="400" x2="240.5" y2="400" transform="rotate(148, 400, 400)" opacity="0.91"></line><line x1="725.5" y1="400" x2="74.5" y2="400" transform="rotate(152, 400, 400)" opacity="0.71"></line><line x1="677" y1="400" x2="123" y2="400" transform="rotate(156, 400, 400)" opacity="0.83"></line><line x1="335.5" y1="400" x2="464.5" y2="400" transform="rotate(160, 400, 400)" opacity="0.89"></line><line x1="280" y1="400" x2="520" y2="400" transform="rotate(164, 400, 400)" opacity="0.88"></line><line x1="126" y1="400" x2="674" y2="400" transform="rotate(168, 400, 400)" opacity="0.43"></line><line x1="140" y1="400" x2="660" y2="400" transform="rotate(172, 400, 400)" opacity="0.10"></line><line x1="253.5" y1="400" x2="546.5" y2="400" transform="rotate(176, 400, 400)" opacity="0.99"></line><line x1="567.5" y1="400" x2="232.5" y2="400" transform="rotate(180, 400, 400)" opacity="0.54"></line><line x1="705" y1="400" x2="95" y2="400" transform="rotate(184, 400, 400)" opacity="0.66"></line><line x1="348.5" y1="400" x2="451.5" y2="400" transform="rotate(188, 400, 400)" opacity="0.17"></line><line x1="239.5" y1="400" x2="560.5" y2="400" transform="rotate(192, 400, 400)" opacity="0.75"></line><line x1="132.5" y1="400" x2="667.5" y2="400" transform="rotate(196, 400, 400)" opacity="0.54"></line><line x1="499" y1="400" x2="301" y2="400" transform="rotate(200, 400, 400)" opacity="0.49"></line><line x1="46" y1="400" x2="754" y2="400" transform="rotate(204, 400, 400)" opacity="0.78"></line><line x1="447" y1="400" x2="353" y2="400" transform="rotate(208, 400, 400)" opacity="0.76"></line><line x1="706" y1="400" x2="94" y2="400" transform="rotate(212, 400, 400)" opacity="0.66"></line><line x1="84.5" y1="400" x2="715.5" y2="400" transform="rotate(216, 400, 400)" opacity="0.09"></line><line x1="588" y1="400" x2="212" y2="400" transform="rotate(220, 400, 400)" opacity="0.33"></line><line x1="73" y1="400" x2="727" y2="400" transform="rotate(224, 400, 400)" opacity="0.10"></line><line x1="106.5" y1="400" x2="693.5" y2="400" transform="rotate(228, 400, 400)" opacity="0.77"></line><line x1="374.5" y1="400" x2="425.5" y2="400" transform="rotate(232, 400, 400)" opacity="0.83"></line><line x1="559" y1="400" x2="241" y2="400" transform="rotate(236, 400, 400)" opacity="0.60"></line><line x1="115" y1="400" x2="685" y2="400" transform="rotate(240, 400, 400)" opacity="0.92"></line><line x1="368.5" y1="400" x2="431.5" y2="400" transform="rotate(244, 400, 400)" opacity="0.25"></line><line x1="470.5" y1="400" x2="329.5" y2="400" transform="rotate(248, 400, 400)" opacity="0.58"></line><line x1="444" y1="400" x2="356" y2="400" transform="rotate(252, 400, 400)" opacity="0.46"></line><line x1="125.5" y1="400" x2="674.5" y2="400" transform="rotate(256, 400, 400)" opacity="0.41"></line><line x1="698" y1="400" x2="102" y2="400" transform="rotate(260, 400, 400)" opacity="0.08"></line><line x1="724" y1="400" x2="76" y2="400" transform="rotate(264, 400, 400)" opacity="0.08"></line><line x1="375.5" y1="400" x2="424.5" y2="400" transform="rotate(268, 400, 400)" opacity="0.57"></line><line x1="710.5" y1="400" x2="89.5" y2="400" transform="rotate(272, 400, 400)" opacity="0.31"></line><line x1="556.5" y1="400" x2="243.5" y2="400" transform="rotate(276, 400, 400)" opacity="0.20"></line><line x1="514" y1="400" x2="286" y2="400" transform="rotate(280, 400, 400)" opacity="0.23"></line><line x1="300.5" y1="400" x2="499.5" y2="400" transform="rotate(284, 400, 400)" opacity="0.10"></line><line x1="653" y1="400" x2="147" y2="400" transform="rotate(288, 400, 400)" opacity="0.39"></line><line x1="104" y1="400" x2="696" y2="400" transform="rotate(292, 400, 400)" opacity="0.17"></line><line x1="463" y1="400" x2="337" y2="400" transform="rotate(296, 400, 400)" opacity="0.57"></line><line x1="728.5" y1="400" x2="71.5" y2="400" transform="rotate(300, 400, 400)" opacity="0.44"></line><line x1="326" y1="400" x2="474" y2="400" transform="rotate(304, 400, 400)" opacity="0.75"></line><line x1="438.5" y1="400" x2="361.5" y2="400" transform="rotate(308, 400, 400)" opacity="0.67"></line><line x1="274" y1="400" x2="526" y2="400" transform="rotate(312, 400, 400)" opacity="0.89"></line><line x1="620.5" y1="400" x2="179.5" y2="400" transform="rotate(316, 400, 400)" opacity="0.64"></line><line x1="25" y1="400" x2="775" y2="400" transform="rotate(320, 400, 400)" opacity="0.84"></line><line x1="431.5" y1="400" x2="368.5" y2="400" transform="rotate(324, 400, 400)" opacity="0.28"></line><line x1="475.5" y1="400" x2="324.5" y2="400" transform="rotate(328, 400, 400)" opacity="0.32"></line><line x1="183.5" y1="400" x2="616.5" y2="400" transform="rotate(332, 400, 400)" opacity="0.72"></line><line x1="449.5" y1="400" x2="350.5" y2="400" transform="rotate(336, 400, 400)" opacity="0.48"></line><line x1="170" y1="400" x2="630" y2="400" transform="rotate(340, 400, 400)" opacity="0.12"></line><line x1="413.5" y1="400" x2="386.5" y2="400" transform="rotate(344, 400, 400)" opacity="0.54"></line><line x1="62" y1="400" x2="738" y2="400" transform="rotate(348, 400, 400)" opacity="0.70"></line></g></svg>