<svg xmlns="http://www.w3.org/2000/svg" version="1.1" xmlns:xlink="http://www.w3.org/1999/xlink" xmlns:svgjs="http://svgjs.dev/svgjs" viewBox="0 0 800 800"><defs><linearGradient x1="50%" y1="0%" x2="50%" y2="100%" id="wwwhirl-grad"><stop stop-color="hsl(50, 98%, 60%)" stop-opacity="1" offset="45%"></stop><stop stop-color="hsl(50, 98%, 80%)" stop-opacity="1" offset="100%"></stop></linearGradient></defs><g stroke-width="2" stroke="url(#wwwhirl-grad)" fill="none" stroke-linecap="round"><path d="M37.00000251770027 439.1146454885701C50.75000289917 424.4708950823048 75.50000358581553 368.8246435384968 103.000004348755 368.8246435384968C130.50000511169446 368.8246435384968 141.5000054168703 443.44589560873305 169.00000617980973 439.1146454885701C196.5000069427492 434.7833953684071 207.50000724792503 349.68464300749093 235.00000801086446 348.03464296171455C262.500008773804 346.38464291593823 273.5000090789798 428.51339519445696 301.0000098419193 431.19464526884354C328.50001060485874 433.8758953432301 339.5000109100345 356.36714319288524 367.000011672974 360.90464331877024C394.50001243591345 365.44214344465524 405.5000127410893 456.0683959589223 433.0000135040287 452.9746458730916C460.5000142669682 449.8808957872609 471.50001457214404 347.7046429525593 499.0000153350834 346.05464290678293C526.5000160980228 344.40464286100655 537.5000164031987 438.6608954759816 565.0000171661382 445.054645653365C592.5000179290777 451.44839583074844 603.5000182342535 374.88839370672497 631.000018997193 376.7446437582234C658.5000197601325 378.6008938097218 669.5000200653083 453.5521458891133 697.0000208282477 453.96464590055746C724.5000215911871 454.37714591200154 749.2500222778326 394.39964424803054 763.0000226593024 378.724643813155 " transform="rotate(99, 400, 400)"></path><path d="M48.00000244140632 437.9293573625256C61.33333614464971 423.7293569685714 85.3333368104878 369.76935547154545 112.00000421697456 369.76935547154545C138.6666716234613 369.76935547154545 149.33333858605602 442.12935747904726 176.00000599254278 437.9293573625256C202.66667339902952 433.72935724600393 213.33334036162427 351.20935495663065 240.000007768111 349.60935491224143C266.6666751745978 348.00935486785227 277.3333421371925 427.64935707732496 304.00000954367925 430.2493571494574C330.66667695016605 432.8493572215899 341.3333439127607 357.68935513640696 368.00001131924745 362.08935525847727C394.66667872573424 366.4893553805476 405.33334568832896 454.3693578186247 432.00001309481576 451.36935773539494C458.66668050130244 448.36935765216515 469.3333474638972 349.2893549033636 496.0000148703839 347.6893548589744C522.6666822768707 346.0893548145852 533.3333492394653 437.4893573503186 560.0000166459522 443.68935752232676C586.666684052439 449.88935769433493 597.3333510150337 375.64935563467577 624.0000184215204 377.44935568461364C650.6666858280073 379.2493557345515 661.3333527906019 451.92935775093116 688.0000201970887 452.32935776202845C714.6666876035754 452.7293577731258 738.6666882694134 394.56935615957815 752.0000219726569 379.36935573788065 " transform="rotate(96, 400, 400)"></path><path d="M59.00000236511238 436.74406160708656C71.9166693901294 422.98781122544347 95.16667003516005 370.71405977519953 121.00000408519412 370.71405977519953C146.83333813522813 370.71405977519953 157.1666717552418 440.81281171996693 183.0000058052758 436.74406160708656C208.83333985530987 432.6753114942062 219.1666734753235 352.73405927637583 245.00000752535757 351.1840592333738C270.8333415753916 349.6340591903718 281.1666751954052 426.78531133079844 307.0000092454393 429.3040614006768C332.83334329547336 431.8228114705551 343.16667691548696 359.0115594505341 369.00001096552097 363.2740595687897C394.83334501555504 367.5365596870453 405.1666786355687 452.6703120489326 431.0000126856027 449.76406196830374C456.8333467356368 446.8578118876749 467.16668035565044 350.87405922477336 493.0000144056845 349.32405918177136C518.8333484557185 347.7740591387693 529.1666820757321 436.317811595261 555.0000161257661 442.3240617618939C580.8333501758003 448.33031192852684 591.1666837958139 376.41030993323204 617.000017845848 378.15405998160935C642.8333518958821 379.89781002998666 653.1666855158957 450.3065619833544 679.0000195659296 450.69406199410497C704.8333536159636 451.08156200485547 728.0833542609943 394.7390604417312 741.0000212860114 380.0140600332118 " transform="rotate(93, 400, 400)"></path><path d="M70.00000228881842 435.5587696663448C82.50000263560909 422.24626929701276 105.00000325983231 371.65876789355093 130.00000395341365 371.65876789355093C155.00000464699497 371.65876789355093 165.00000492442751 439.49626977558387 190.00000561800886 435.5587696663448C215.0000063115902 431.62126955710573 225.00000658902275 354.2587674108183 250.00000728260406 352.7587673692034C275.00000797618543 351.25876732758854 285.000008253618 425.9212693989692 310.0000089471993 428.3587694665934C335.00000964078066 430.7962695342176 345.00000991821315 360.33376757935855 370.0000106117945 364.4587676937995C395.00001130537584 368.5837678082404 405.0000115828084 450.97127009393773 430.0000122763897 448.1587700159098C455.000012969971 445.3462699378819 465.0000132474036 352.4587673608804 490.00001394098496 350.9587673192656C515.0000146345662 349.4587672776507 525.0000149119987 435.1462696549007 550.0000156055801 440.9587698161584C575.0000162991615 446.77126997741607 585.000016576594 377.1712680464856 610.0000172701755 378.85876809330233C635.0000179637568 380.5462681401191 645.0000182411893 448.683770030475 670.0000189347705 449.05877004087876C695.0000196283519 449.43377005128247 717.5000202525752 394.9087685385815 730.0000205993658 380.6587681432402 " transform="rotate(90, 400, 400)"></path><path d="M81.00000221252448 434.37347772560304C93.08333588108879 421.50472736858205 114.83333648450457 372.6034760119023 139.0000038216332 372.6034760119023C163.1666711587618 372.6034760119023 172.83333809361326 438.1797278312008 197.0000054307419 434.37347772560304C221.16667276787052 430.56722762000527 230.833339702722 355.7834755452607 255.00000703985063 354.333475505033C279.16667437697924 352.8834754648053 288.83334131183074 425.0572274671399 313.00000864895935 427.41347753251C337.16667598608797 429.76972759788003 346.8333429209394 361.655975708183 371.000010258068 365.64347581880924C395.16667759519663 369.63097592943546 404.8333445300481 449.2722281389428 429.00001186717674 446.55347806351585C453.16667920430535 443.8347279880889 462.8333461391569 354.04347549698747 487.00001347628546 352.59347545675973C511.1666808134141 351.14347541653206 520.8333477482655 433.9747277145404 545.0000150853941 439.5934778704228C569.1666824225229 445.2122280263052 578.8333493573742 377.9322261597391 603.000016694503 379.5634762049953C627.1666840316316 381.1947262502515 636.8333509664831 447.06097807759556 661.0000183036116 447.4234780876525C685.1666856407402 447.7859780977094 706.9166862441559 395.0784766354319 719.0000199127203 381.30347625326857 " transform="rotate(87, 400, 400)"></path><path d="M92.00000213623053 433.1881857848613C103.6666691265685 420.76318544015135 124.66666970917683 373.5481841302536 148.00000368985275 373.5481841302536C171.33333767052864 373.5481841302536 180.666671262799 436.86318588681775 204.00000524347493 433.1881857848613C227.33333922415085 429.5131856829048 236.66667281642125 357.3081836797032 260.00000679709717 355.9081836408626C283.33334077777306 354.5081836020221 292.66667437004344 424.1931855353107 316.0000083507193 426.4681855984266C339.3333423313953 428.7431856615425 348.66667592366565 362.97818383700746 372.00000990434154 366.82818394381894C395.3333438850174 370.6781840506305 404.6666774772878 447.573186183948 428.00001145796375 444.9481861111219C451.3333454386397 442.3231860382959 460.6666790309101 355.6281836330945 484.000013011586 354.22818359425395C507.33334699226185 352.82818355541343 516.6666805845323 432.8031857741801 540.0000145652082 438.2281859246873C563.3333485458841 443.6531860751944 572.6666821381544 378.69318427299265 596.0000161188304 380.2681843166883C619.3333500995063 381.84318436038393 628.6666836917767 445.43818612471614 652.0000176724526 445.78818613442627C675.3333516531285 446.1381861441364 696.3333522357368 395.2481847322822 708.0000192260748 381.94818436329695 " transform="rotate(84, 400, 400)"></path><path d="M103.00000205993659 432.0028938441195C114.25000237204819 420.02164351172064 134.5000029338491 374.492892248605 157.00000355807228 374.492892248605C179.50000418229547 374.492892248605 188.5000044319848 435.5466439424347 211.00000505620795 432.0028938441195C233.50000568043117 428.45914374580434 242.50000593012047 358.8328918141456 265.0000065543437 357.48289177669227C287.5000071785669 356.13289173923886 296.5000074282562 423.32914360348144 319.0000080524794 425.5228936643432C341.5000086767026 427.716643725205 350.50000892639184 364.30039196583186 373.00000955061506 368.0128920688287C395.5000101748383 371.72539217182555 404.5000104245276 445.8741442289531 427.00001104875076 443.342894158728C449.500011672974 440.8116440885029 458.5000119226633 357.2128917692016 481.00001254688647 355.86289173174816C503.50001317110963 354.5128916942948 512.5000134207988 431.6316438338198 535.0000140450221 436.8628939789517C557.5000146692455 442.0941441240836 566.5000149189347 379.4541423862462 589.0000155431579 380.9728924283813C611.5000161673811 382.49164247051635 620.5000164170704 443.8153941718367 643.0000170412935 444.15289418120005C665.5000176655168 444.4903941905634 685.7500182273176 395.4178928291326 697.0000185394292 382.5928924733253 " transform="rotate(81, 400, 400)"></path><path d="M114.00000198364263 430.81760190337775C124.83333561752788 419.28010158328993 144.33333615852135 375.43760036695636 166.0000034262918 375.43760036695636C187.6666706940623 375.43760036695636 196.3333376011705 434.2301019980516 218.000004868941 430.81760190337775C239.6666721367115 427.4051018087039 248.3333390438197 360.3575999485881 270.0000063115902 359.0575999125219C291.6666735793607 357.75759987645563 300.33334048646896 422.4651016716522 322.0000077542394 424.57760173025986C343.6666750220099 426.6901017888675 352.3333419291181 365.6226000946563 374.0000091968886 369.19760019383847C395.6666764646591 372.77260029302056 404.3333433717673 444.17510227395826 426.0000106395378 441.73760220633403C447.66667790730827 439.3001021387099 456.3333448144165 358.79759990530863 478.00001208218697 357.4975998692424C499.66667934995746 356.1975998331761 508.33334625706556 430.4601018934595 530.0000135248362 435.49760203321614C551.6666807926067 440.5351021729728 560.3333476997147 380.2151004994997 582.0000149674854 381.67760054007425C603.6666822352558 383.1401005806488 612.3333491423641 442.19260221895723 634.0000164101345 442.51760222797384C655.666683677905 442.8426022369904 675.1666842188985 395.5876009259829 686.0000178527837 383.23760058335375 " transform="rotate(78, 400, 400)"></path><path d="M125.00000190734869 429.6323061479387C135.41666886300757 418.53855584016196 154.1666693831936 376.38230467061044 175.00000329451137 376.38230467061044C195.83333720582914 376.38230467061044 204.16667077035626 432.9135562389713 225.00000468167406 429.6323061479387C245.83333859299182 426.35105605690615 254.16667215751897 361.88230426833326 275.00000606883674 360.6323042336542C295.8333399801545 359.38230419897513 304.16667354468166 421.6010559251257 325.0000074559994 423.6323059814792C345.8333413673172 425.6635560378327 354.16667493184434 366.9448044087835 375.00000884316205 370.3823045041509C395.8333427544799 373.81980459951836 404.166676319007 442.4760565042661 425.0000102303248 440.1323064392429C445.83334414164256 437.78855637421964 454.1666777061697 360.38230422671836 475.0000116174875 359.1323041920393C495.83334552880524 357.88230415736024 504.1666790933323 429.288556138402 525.0000130046501 434.13230627278335C545.8333469159679 438.9760564071647 554.166680480495 380.976054798056 575.0000143918128 382.38230483706997C595.8333483031306 383.78855487608394 604.1666818676579 440.56980645138054 625.0000157789755 440.8823064600503C645.8333496902933 441.1948064687201 664.5833502104794 395.757305208136 675.0000171661382 383.88230487868486 " transform="rotate(75, 400, 400)"></path><path d="M136.00000183105476 428.4470103924997C146.00000210848728 417.797010097034 164.00000260786584 377.3270089742646 184.00000316273093 377.3270089742646C204.00000371759597 377.3270089742646 212.000003939542 431.5970104798909 232.00000449440708 428.4470103924997C252.00000504927215 425.2970103051084 260.0000052712182 363.40700858807844 280.0000058260833 362.20700855478657C300.0000063809483 361.00700852149464 308.00000660289436 420.7370101785992 328.00000715775946 422.6870102326985C348.00000771262455 424.6370102867979 356.00000793457053 368.26700872291065 376.0000084894356 371.5670088144634C396.00000904430067 374.86700890601617 404.0000092662467 440.777010734574 424.0000098211118 438.5270106721517C444.0000103759769 436.27701060972936 452.0000105979229 361.96700854812815 472.000011152788 360.7670085148363C492.000011707653 359.56700848154435 500.00001192959905 428.1170103833444 520.0000124844642 432.76701051235057C540.0000130393292 437.4170106413567 548.0000132612753 381.7370090966123 568.0000138161404 383.0870091340657C588.0000143710055 384.4370091715191 596.0000145929514 438.94701068380385 616.0000151478165 439.2470106921268C636.0000157026815 439.5470107004498 654.00001620206 395.92700949028904 664.0000164794926 384.527009174016 " transform="rotate(72, 400, 400)"></path><path d="M146.9999864959717 427.2617222664552C156.5833200951779 417.0554719833006 173.83332057374906 378.2717209073132 192.9999877721614 378.2717209073132C212.16665497057375 378.2717209073132 219.8333218499387 430.2804723502051 238.99998904835104 427.2617222664552C258.1666562467634 424.2429721827052 265.8333231261284 364.93172053721815 284.9999903245407 363.78172050531344C304.1666575229531 362.6317204734087 311.83332440231806 419.8729720614672 330.9999916007304 421.74172211331245C350.1666587991428 423.6104721651576 357.83332567850766 369.58922066643237 376.99999287692003 372.75172075417044C396.1666600753324 375.91422084190845 403.8333269546974 439.0779725942764 422.99999415310975 436.921722534455C442.1666613515221 434.7654724746336 449.83332823088705 363.55172049893247 468.9999954292994 362.40172046702776C488.16666262771173 361.251720435123 495.83332950707666 426.9454722576814 514.9999967054891 431.40172238131225C534.1666639039015 435.8579725049431 541.8333307832664 382.4979710245631 560.9999979816788 383.7917210604559C580.1666651800912 385.0854710963488 587.8333320594561 437.32422254562164 606.9999992578685 437.6117225535979C626.1666664562807 437.89922256157405 643.4166669348518 396.0967214018367 653.000000534058 385.1717210987416 " transform="rotate(69, 400, 400)"></path><path d="M157.99998641967778 426.0764303257134C167.1666533406576 416.3139300548699 183.6666537984213 379.2164290256645 201.99998764038094 379.2164290256645C220.33332148234058 379.2164290256645 227.66665501912445 428.96393040582205 245.9999888610841 426.0764303257134C264.33332270304373 423.18893024560475 271.6666562398276 366.4564286716606 289.99999008178725 365.35642864114305C308.3333239237469 364.25642861062545 315.6666574605308 419.008930129638 333.99999130249046 420.79643017922905C352.3333251444501 422.5839302288201 359.6666586812339 370.9114287952568 377.99999252319355 373.93642887918014C396.3333263651532 376.9614289631035 403.6666599019371 437.3789306392815 421.99999374389677 435.31643058206106C440.3333275858564 433.2539305248406 447.6666611226403 365.1364286350395 465.9999949645999 364.036428604522C484.3333288065595 362.93642857400437 491.6666623433434 425.77393031732106 509.9999961853031 430.0364304355767C528.3333300272627 434.2989305538323 535.6666635640465 383.25892913781666 553.9999974060063 384.4964291721489C572.3333312479659 385.7339292064812 579.6666647847499 435.7014305927422 597.9999986267094 435.9764306003716C616.3333324686689 436.251430608001 632.8333329264326 396.266429498687 641.9999998474125 385.81642920877 " transform="rotate(66, 400, 400)"></path><path d="M168.99998634338385 424.8911383849716C177.7499865861373 415.5723881264392 193.49998702309355 380.1611371440159 210.9999875086005 380.1611371440159C228.4999879941074 380.1611371440159 235.49998818831023 427.647388461439 252.99998867381714 424.8911383849716C270.49998915932406 422.1348883085043 277.49998935352687 367.98113680610305 294.9999898390338 366.93113677697266C312.4999903245407 365.8811367478422 319.4999905187435 418.1448881978087 336.99999100425043 419.85113824514565C354.49999148975735 421.5573882924826 361.49999168396016 372.2336369240813 378.9999921694671 375.1211370041899C396.49999265497405 378.0086370842985 403.4999928491768 435.67988868428665 420.9999933346837 433.7111386296671C438.4999938201907 431.7423885750476 445.4999940143935 366.7211367711466 462.9999944999004 365.6711367420162C480.4999949854073 364.62113671288574 487.4999951796101 424.6023883769608 504.99999566511707 428.67113848984116C522.4999961506239 432.7398886027215 529.4999963448267 384.0198872510702 546.9999968303338 385.2011372838419C564.4999973158407 386.38238731661363 571.4999975100434 434.0786386398628 588.9999979955503 434.3411386471454C606.4999984810572 434.603638654428 622.2499989180135 396.43613759553733 630.999999160767 386.4611373187984 " transform="rotate(63, 400, 400)"></path><path d="M179.9999862670899 423.7058464442299C188.33331983161702 414.8308461980085 203.3333202477658 381.10584526236727 219.99998737682003 381.10584526236727C236.66665450587425 381.10584526236727 243.33332135749595 426.33084651705593 259.9999884865502 423.7058464442299C276.6666556156044 421.0808463714038 283.33332246722614 369.5058449405455 299.99998959628033 368.5058449128023C316.6666567253345 367.505844885059 323.3333235769563 417.28084626597945 339.9999907060105 418.90584631106225C356.6666578350647 420.53084635614505 363.3333246866864 373.5558450529057 379.9999918157406 376.30584512919967C396.6666589447948 379.0558452054936 403.33332579641655 433.9808467292918 419.9999929254708 432.1058466772732C436.666660054525 430.23084662525457 443.3333269061467 368.30584490725363 459.9999940352009 367.30584487951035C476.6666611642551 366.3058448517671 483.33332801587676 423.43084643660046 499.99999514493106 427.3058465441056C516.6666622739854 431.1808466516107 523.333329125607 384.78084536432374 539.9999962546613 385.90584539553487C556.6666633837156 387.03084542674605 563.3333302353371 432.45584668698336 579.9999973643913 432.70584669391917C596.6666644934455 432.955846700855 611.6666649095944 396.6058456923877 619.9999984741214 387.1058454288268 " transform="rotate(60, 400, 400)"></path><path d="M190.99998619079594 422.5205545034881C198.9166530770967 414.0893042695778 213.16665347243807 382.0505533807186 228.99998724503956 382.0505533807186C244.83332101764108 382.0505533807186 251.1666545266817 425.0143045726728 266.99998829928325 422.5205545034881C282.8333220718847 420.02680443430336 289.16665558092535 371.030553074988 304.99998935352687 370.0805530486319C320.83332312612833 369.1305530222758 327.166656635169 416.41680433415024 342.9999904077705 417.96055437697885C358.833324180372 419.5043044198075 365.1666576894126 374.87805318173014 380.9999914620141 377.4905532542094C396.8333252346156 380.10305332668867 403.1666587436563 432.2818047742969 418.99999251625775 430.5005547248793C434.83332628885927 428.7193046754616 441.1666597978999 369.8905530433607 456.99999357050143 368.94055301700456C472.8333273431029 367.9905529906485 479.1666608521435 422.2593044962402 494.99999462474506 425.94055459837C510.8333283973466 429.62180470049987 517.1666619063872 385.5418034775773 532.9999956789886 386.61055350722785C548.8333294515903 387.6793035368785 555.1666629606309 430.8330547341039 570.9999967332324 431.0705547406929C586.8333305058338 431.308054747282 601.0833309011753 396.775553789238 608.9999977874759 387.7505535388552 " transform="rotate(57, 400, 400)"></path><path d="M201.999986114502 421.3352606553977C209.49998632257638 413.34776043379844 222.99998669711033 382.9952595917214 237.99998711325912 382.9952595917214C252.99998752940792 382.9952595917214 258.99998769586745 423.6977607209411 273.99998811201624 421.3352606553977C288.9999885281651 418.97276058985426 294.99998869462456 372.5552593020818 309.9999891107734 371.65525927711286C324.9999895269222 370.75525925214396 330.99998969338174 415.55276049497235 345.99999010953053 417.0152605355469C360.9999905256793 418.47776057612134 366.9999906921388 376.20025940320596 381.99999110828765 378.6752594718705C396.99999152443644 381.15025954053505 402.99999169089597 430.5827609119534 417.99999210704476 428.8952608651367C432.99999252319355 427.20776081831997 438.99999268965314 371.47525927211905 453.99999310580193 370.57525924715014C468.9999935219507 369.67525922218124 474.9999936884102 421.08776064853123 489.99999410455905 424.57526074528585C504.9999945207079 428.06276084204046 510.9999946871674 386.3027596834822 525.9999951033162 387.3152597115722C540.9999955194651 388.32775973966227 546.9999956859245 429.2102608738758 561.9999961020733 429.43526088011805C576.9999965182221 429.6602608863603 590.499996892756 396.9452599787397 597.9999971008303 388.3952597415349 " transform="rotate(54, 400, 400)"></path><path d="M212.99998603820805 420.1499687146559C220.08331956805608 412.6062185053678 232.8333199217826 383.9399677100727 246.99998698147868 383.9399677100727C261.16665404117475 383.9399677100727 266.8333208650532 422.38121877655806 280.9999879247493 420.1499687146559C295.16665498444536 417.9187186527538 300.83332180832383 374.07996743652427 314.99998886801995 373.2299674129425C329.166655927716 372.37996738936073 334.83332275159444 414.6887185631431 348.99998981129056 416.0699686014635C363.1666568709866 417.45121863978386 368.83332369486504 377.5224675320304 382.99999075456117 379.85996759688027C397.16665781425723 382.1974676617301 402.8333246381357 428.88371895695855 416.9999916978318 427.2899689127428C431.1666587575279 425.69621886852696 436.8333255814063 373.0599674082261 450.99999264110244 372.20996738464436C465.1666597007985 371.3599673610626 470.8333265246769 419.91621870817096 484.99999358437304 423.20996879955027C499.16666064406917 426.50371889092963 504.8333274679476 387.0637177967357 518.9999945276437 388.0199678232652C533.1666615873398 388.9762178497947 538.8333284112182 427.5874689209964 552.9999954709143 427.79996892689184C567.1666625306103 428.01246893278727 579.9166628843368 397.11496807559007 586.9999964141849 389.03996785156335 " transform="rotate(51, 400, 400)"></path><path d="M223.9999859619141 418.96467677391416C230.6666528135358 411.8646765769371 242.66665314645485 384.88467582842407 255.99998684969822 384.88467582842407C269.3333205529416 384.88467582842407 274.66665403423895 421.064676832175 287.99998773748234 418.96467677391416C301.3333214407257 416.86467671565333 306.6666549220231 375.6046755709667 319.99998862526644 374.8046755487721C333.33332232850984 374.0046755265775 338.6666558098072 413.8246766313139 351.99998951305054 415.1246766673801C365.33332321629393 416.4246767034463 370.6666566975913 378.8446756608548 383.9999904008347 381.04467572189C397.3333241040781 383.2446757829251 402.66665758537545 427.18467700196373 415.99999128861884 425.68467696034884C429.3333249918621 424.18467691873394 434.66665847315954 374.64467554433315 447.9999921764029 373.8446755221386C461.3333258796463 373.044675499944 466.6666593609436 418.74467676781063 479.99999306418704 421.84467685381475C493.33332676743044 424.9446769398188 498.6666602487278 387.82467590998925 511.99999395197113 388.72467593495816C525.3333276552146 389.6246759599271 530.666661136512 425.9646769681169 543.9999948397553 426.16467697366556C557.3333285429986 426.36467697921427 569.3333288759177 397.2846761724404 575.9999957275394 389.6846759615917 " transform="rotate(48, 400, 400)"></path><path d="M234.99998588562016 417.77938292582377C241.2499860590155 411.12313274115775 252.49998637112708 385.82938203942683 264.99998671791775 385.82938203942683C277.4999870647084 385.82938203942683 282.49998720342467 419.7481329804433 294.99998755021534 417.77938292582377C307.499987897006 415.81063287120423 312.4999880357223 377.12938179806054 324.999988382513 376.37938177725306C337.49998872930365 375.62938175644564 342.49998886801995 412.960632792136 354.9999892148106 414.17938282594804C367.4999895616013 415.39813285976015 372.49998970031754 380.16688188233064 384.9999900471082 382.2293819395511C397.4999903938989 384.29188199677156 402.49999053261513 425.48563313962023 414.9999908794058 424.07938310060626C427.49999122619647 422.67313306159235 432.4999913649127 376.2293817730916 444.9999917117034 375.47938175228416C457.49999205849406 374.7293817314767 462.4999921972103 417.5731329201017 474.999992544001 420.47938300073054C487.4999928907917 423.3856330813594 492.49999302950795 388.58563211589416 504.9999933762987 389.42938213930256C517.4999937230893 390.2731321627109 522.4999938618056 424.34188310788886 534.9999942085963 424.5293831130907C547.4999945553868 424.71688311829257 558.7499948674986 397.4543823619421 564.9999950408939 390.32938216427146 " transform="rotate(45, 400, 400)"></path><path d="M245.9999858093262 416.594090985082C251.83331930449518 410.38159081272704 262.33331959579937 386.7740901577782 273.9999865861373 386.7740901577782C285.66665357647526 386.7740901577782 290.33332037261044 418.43159103606024 301.9999873629484 416.594090985082C313.6666543532864 414.75659093410377 318.3333211494216 378.654089932503 329.9999881397595 377.95408991308267C341.66665513009747 377.2540898936624 346.33332192623266 412.0965908603067 357.9999889165706 413.23409089186464C369.66665590690855 414.3715909234226 374.3333227030438 381.4890900111551 385.99998969338174 383.41409006456087C397.6666566837197 385.33909011796663 402.3333234798548 423.78659118462537 413.9999904701928 422.4740911482123C425.6666574605308 421.16159111179934 430.33332425666595 377.81408990919863 441.99999124700395 377.11408988977837C453.66665823734184 376.41408987035805 458.3333250334771 416.4015909797414 469.999992023815 419.114091054995C481.66665901415297 421.8265911302486 486.33332581028816 389.3465902291477 497.99999280062616 390.13409025099554C509.6666597909641 390.92159027284333 514.3333265870992 422.71909115500944 525.9999935774372 422.8940911598645C537.6666605677751 423.06909116471957 548.1666608590793 397.62409045879247 553.9999943542483 390.97409027429984 " transform="rotate(42, 400, 400)"></path><path d="M256.99998573303225 415.40879904434024C262.41665254997486 409.64004888429633 272.1666528204716 387.7187982761295 282.9999864543569 387.7187982761295C293.8333200882421 387.7187982761295 298.1666535417962 417.1150490916772 308.99998717568144 415.40879904434024C319.83332080956666 413.7025489970033 324.1666542631208 380.17879806694543 334.999987897006 379.5287980489123C345.8333215308913 378.8787980308792 350.1666549844454 411.23254892847746 360.99998861833063 412.2887989577813C371.8333222522159 413.3450489870851 376.16665570577 382.8112981399795 386.99998933965526 384.5987981895706C397.8333229735405 386.38629823916165 402.1666564270946 422.0875492296305 412.9999900609798 420.8687991958184C423.83332369486504 419.6500491620063 428.1666571484192 379.3987980453057 438.9999907823044 378.7487980272725C449.83332441618967 378.09879800923943 454.16665786974374 415.23004903938113 464.999991503629 417.74879910925944C475.8333251375143 420.26754917913775 480.1666585910683 390.10754834240123 490.99999222495364 390.8387983626885C501.83332585883886 391.57004838297576 506.166659312393 421.09629920213 516.9999929462782 421.2587992066383C527.8333265801634 421.42129921114656 537.5833268506601 397.7937985556428 542.9999936676028 391.6187983843282 " transform="rotate(39, 400, 400)"></path><path d="M267.9999856567383 414.22350519624985C272.99998579545456 408.898505048517 281.9999860451438 388.6635044871323 291.99998632257643 388.6635044871323C301.9999866000089 388.6635044871323 305.99998671098194 415.7985052399455 315.9999869884145 414.22350519624985C325.99998726584704 412.6485051525542 329.99998737682006 381.70350429403925 339.99998765425255 381.10350427739326C349.9999879316851 380.5035042607473 353.9999880426581 410.3685050892996 363.99998832009067 411.34350511634926C373.9999885975232 412.31850514339897 377.9999887084962 384.1335043614553 387.9999889859287 385.7835044072317C397.9999892633613 387.4335044530081 401.9999893743343 420.388505367287 411.99998965176684 419.2635053360758C421.9999899291994 418.1385053048647 425.9999900401724 380.9835042740641 435.9999903176049 380.3835042574181C445.99999059503745 379.7835042407722 449.99999070601046 414.0585051916722 459.999990983443 416.3835052561753C469.99999126087556 418.70850532067834 473.9999913718486 390.86850454830613 483.9999916492811 391.54350456703287C493.9999919267137 392.21850458575955 497.99999203768664 419.4735053419019 507.9999923151192 419.62350534606344C517.9999925925517 419.7735053502249 526.999992842241 397.9635047451445 531.9999929809572 392.263504587008 " transform="rotate(36, 400, 400)"></path><path d="M279.0000008392334 413.0382132555081C283.58333429972333 408.1569631200863 291.8333345286052 389.60821260548363 301.000001449585 389.60821260548363C310.1666683705648 389.60821260548363 313.8333351389567 414.48196329556237 323.0000020599366 413.0382132555081C332.16666898091637 411.59446321545374 335.83333574930833 383.2282124284817 345.00000267028815 382.67821241322287C354.166669591268 382.1282123979641 357.83333635965994 409.50446315747035 367.00000328063976 410.39821318226586C376.1666702016196 411.2919632070614 379.8333369700115 385.4557124902798 389.0000038909913 386.96821253224147C398.16667081197113 388.4807125742031 401.8333375803631 418.6894634122921 411.0000045013429 417.65821338368187C420.16667142232274 416.62696335507167 423.8333381907147 382.5682124101711 433.00000511169446 382.0182123949123C442.1666720326743 381.46821237965355 445.83333880106625 412.8869632513119 455.00000572204607 415.0182133104397C464.1666726430259 417.1494633695675 467.8333394114178 391.62946266155967 477.0000063323977 392.24821267872585C486.1666732533775 392.86696269589197 489.83334002176946 417.8507133890225 499.0000069427492 417.98821339283717C508.166673863729 418.12571339665186 516.4166740926108 398.13321284199486 521.0000075531008 392.9082126970364 " transform="rotate(33, 400, 400)"></path><path d="M290.00000076293946 411.8529213147663C294.16666754520304 407.41542119165564 301.66666775327747 390.552920723835 310.00000131780456 390.552920723835C318.33333488233166 390.552920723835 321.6666683081425 413.1654213511793 330.0000018726696 411.8529213147663C338.33333543719675 410.5404212783533 341.6666688630076 384.75292056292415 350.0000024275347 384.25292054905253C358.3333359920618 383.75292053518086 361.66666941787264 408.6404212256411 370.0000029823998 409.4529212481825C378.3333365469269 410.2654212707239 381.66666997273774 386.77792061910424 390.00000353726483 388.1529206572512C398.3333371017919 389.52792069539817 401.66667052760283 416.99042145729726 410.0000040921299 416.052921431288C418.333337656657 415.11542140527865 421.6666710824679 384.15292054627815 430.00000464699497 383.65292053240654C438.3333382115221 383.1529205185349 441.6666716373329 411.7154213109516 450.00000520186006 413.6529213647042C458.3333387663872 415.5904214184567 461.666672192198 392.3904207748132 470.00000575672516 392.95292079041883C478.3333393212523 393.5154208060244 481.6666727470631 416.22792143614305 490.0000063115902 416.35292143961095C498.3333398761173 416.47792144307886 505.8333400841917 398.3029209388452 510.00000686645524 393.55292080706477 " transform="rotate(30, 400, 400)"></path><path d="M301.00000068664554 410.6676303276989C304.75000079068275 406.67388021689925 311.5000009779497 391.4976297958607 319.00000118602406 391.4976297958607C326.5000013940985 391.4976297958607 329.5000014773283 411.84888036047056 337.00000168540265 410.6676303276989C344.5000018934771 409.48638029492713 347.5000019767068 386.2776296510409 355.00000218478124 385.82762963855646C362.50000239285566 385.37762962607195 365.5000024760854 407.77638024748614 373.00000268415977 408.50763026777344C380.5000028922342 409.23888028806067 383.50000297546393 388.10012970160295 391.00000318353835 389.33762973593525C398.5000033916127 390.57512977026755 401.5000034748425 415.2913804559767 409.00000368291694 414.44763043256836C416.5000038909913 413.60388040915996 419.5000039742211 385.7376296360595 427.00000418229547 385.28762962357507C434.5000043903699 384.8376296110906 437.50000447359963 410.5438803242656 445.00000468167406 412.2876303726429C452.5000048897485 414.03138042102023 455.5000049729782 393.15137984174106 463.00000518105264 393.6576298557861C470.50000538912707 394.16387986983113 473.5000054723568 414.6051304369379 481.0000056804312 414.71763044005905C488.5000058885056 414.83013044318017 495.25000607577255 398.47262998936986 499.0000061798097 394.19762987076746 " transform="rotate(27, 400, 400)"></path><path d="M311.999992980957 409.48233838695705C315.3333264067679 405.93233828846854 321.3333265732274 392.44233791421203 327.9999934248491 392.44233791421203C334.6666602764708 392.44233791421203 337.3333270171195 410.5323384160875 343.99999386874117 409.48233838695705C350.66666072036287 408.43233835782667 353.33332746101155 387.80233778548336 359.99999431263325 387.40233777438607C366.66666116425495 387.0023377632887 369.3333279049036 406.91233831565694 375.99999475652527 407.56233833369004C382.66666160814697 408.21233835172313 385.33332834879565 389.4223378304274 391.99999520041735 390.522337860945C398.66666205203904 391.62233789146256 401.3333287926877 413.59233850098184 407.9999956443094 412.8423384801744C414.66666249593106 412.092338459367 417.33332923657974 387.3223377721666 423.99999608820144 386.9223377610693C430.66666293982314 386.522337749972 433.3333296804718 409.37233838390534 439.9999965320935 410.92233842690734C446.6666633837152 412.4723384699094 449.3333301243639 393.91233795499465 455.9999969759856 394.3623379674791C462.6666638276073 394.81233797996356 465.333330568256 412.98233848405846 471.9999974198777 413.0823384868328C478.6666642714993 413.1823384896071 484.66666443795884 398.6423380862202 487.9999978637697 394.84233798079583 " transform="rotate(24, 400, 400)"></path><path d="M322.9999929046631 408.2970464462153C325.9166596522476 405.19079636003784 331.1666597978997 393.38704603256343 336.99999329306866 393.38704603256343C342.8333267882376 393.38704603256343 345.1666601863052 409.21579647170444 350.99999368147417 408.2970464462153C356.8333271766432 407.3782964207262 359.1666605747108 389.3270459199258 364.9999940698798 388.9770459102157C370.83332756504876 388.62704590050555 373.1666609631163 406.0482963838277 378.9999944582853 406.61704639960664C384.8333279534543 407.18579641538565 387.1666613515219 390.74454595925187 392.99999484669087 391.7070459859547C398.83332834185984 392.66954601265763 401.1666617399274 411.89329654598697 406.99999523509643 411.2370465277805C412.8333287302654 410.580796509574 415.166662128333 388.90704590827363 420.99999562350195 388.5570458985635C426.8333291186709 388.2070458888534 429.16666251673854 408.200796443545 434.9999960119075 409.5570464811718C440.8333295070765 410.9132965187986 443.1666629051441 394.6732960682482 448.9999964003131 395.0670460791721C454.83332989548205 395.460796090096 457.1666632935496 411.35954653117903 462.9999967887186 411.44704653360657C468.83333028388756 411.5345465360341 474.08333042953967 398.81204618307055 476.99999717712416 395.48704609082426 " transform="rotate(21, 400, 400)"></path><path d="M333.99999282836916 407.1117535517992C336.4999928977273 404.4492534779328 340.9999930225719 394.33175319724046 345.9999931612882 394.33175319724046C350.99999330000446 394.33175319724046 352.999993355491 407.89925357364706 357.9999934942073 407.1117535517992C362.9999936329235 406.3242535299514 364.99999368841003 390.85175310069394 369.9999938271263 390.551753092371C374.9999939658426 390.251753084048 376.99999402132903 405.1842534983241 381.99999416004533 405.6717535118489C386.99999429876164 406.1592535253738 388.9999943542481 392.066753134402 393.99999449296433 392.89175315729017C398.99999463168064 393.71675318017833 400.99999468716715 410.19425363731784 405.9999948258834 409.6317536217122C410.9999949645997 409.06925360610666 412.9999950200862 390.49175309070637 417.99999515880245 390.1917530823834C422.9999952975187 389.89175307406043 424.99999535300526 407.02925354951043 429.9999954917215 408.19175358176193C434.99999563043775 409.3542536140135 436.9999956859243 395.4342532278274 441.99999582464056 395.77175323719075C446.9999959633568 396.1092532465541 448.9999960188433 409.7367536246253 453.9999961575596 409.81175362670604C458.99999629627587 409.8867536287868 463.4999964211205 398.9817533262466 465.9999964904786 396.1317532471783 " transform="rotate(18, 400, 400)"></path><path d="M344.99999656677244 405.92646161105745C347.08332995790425 403.7077115495021 350.83333006194147 395.2764613155918 354.99999684420504 395.2764613155918C359.16666362646856 395.2764613155918 360.833330339374 406.582711629264 364.99999712163753 405.92646161105745C369.1666639039011 405.27021159285096 370.8333306168065 392.3764612351364 374.9999973990701 392.1264612282006C379.16666418133366 391.8764612212648 380.83333089423905 404.3202115664949 384.99999767650263 404.7264615777656C389.16666445876615 405.13271158903626 390.8333311716716 393.3889612632264 394.9999979539351 394.07646128229993C399.1666647361987 394.7639613013734 400.83333144910415 408.495211682323 404.9999982313677 408.0264616693183C409.16666501363125 407.55771165631364 410.8333317265367 392.0764612268134 414.9999985088002 391.8264612198776C419.1666652910638 391.5764612129418 420.8333320039692 405.8577116091501 424.99999878623277 406.8264616360264C429.16666556849634 407.79521166290266 430.83333228140174 396.19521134108095 434.9999990636653 396.47646134888373C439.1666658459289 396.7577113566865 440.8333325588343 408.1139616717458 444.9999993410978 408.17646167347976C449.1666661233614 408.2389616752138 452.9166662273986 399.1514614230969 454.99999961853035 396.7764613572067 " transform="rotate(15, 400, 400)"></path><path d="M355.9999964904785 404.74116871664137C357.66666320338396 402.9661686673971 360.6666632866137 396.2211684802689 363.99999671242455 396.2211684802689C367.3333301382354 396.2211684802689 368.66666350855974 405.26616873120656 371.9999969343706 404.74116871664137C375.33333036018144 404.2161687020762 376.6666637305058 393.9011684159045 379.9999971563166 393.7011684103559C383.3333305821275 393.50116840480723 384.6666639524518 403.4561686809913 387.9999973782626 403.78116869000786C391.3333308040735 404.1061686990244 392.66666417439785 394.71116843837655 395.99999760020864 395.2611684536353C399.33333102601955 395.81116846889415 400.6666643963439 406.7961687736538 403.9999978221547 406.4211687632501C407.33333124796553 406.0461687528463 408.6666646182899 393.66116840924616 411.9999980441007 393.46116840369746C415.33333146991157 393.2611683981488 416.6666648402359 404.6861687151155 419.99999826604676 405.4611687366165C423.3333316918576 406.23616875811757 424.66666506218195 396.95616850066017 427.9999984879928 397.1811685069024C431.33333191380365 397.4061685131446 432.666665284128 406.49116876519207 435.99999870993884 406.54116876657923C439.33333213574963 406.5911687679664 442.3333322189794 399.32116856627295 443.9999989318849 397.42116851356076 " transform="rotate(12, 400, 400)"></path><path d="M366.9999964141846 403.5558767758996C368.2499964488636 402.22462673896644 370.499996511286 397.16587659862023 372.9999965806441 397.16587659862023C375.49999665000223 397.16587659862023 376.49999667774546 403.9496267868235 378.99999674710364 403.5558767758996C381.49999681646176 403.1621267649757 382.49999684420504 395.42587655034697 384.9999969135631 395.2758765461855C387.4999969829213 395.125876542024 388.4999970106645 402.59212674916205 390.9999970800227 402.83587675592446C393.4999971493808 403.07962676268687 394.49999717712404 396.033376567201 396.99999724648217 396.4458765786451C399.49999731584035 396.85837659008916 400.4999973435836 405.0971268186589 402.9999974129417 404.81587681085614C405.4999974822998 404.53462680305336 406.4999975100431 395.24587654535316 408.9999975794012 395.09587654119167C411.49999764875935 394.9458765370302 412.49999767650263 403.5146267747552 414.99999774586075 404.095876790881C417.4999978152189 404.67712680700674 418.49999784296216 397.7171266139137 420.9999979123203 397.8858766185954C423.4999979816784 398.05462662327704 424.4999980094217 404.86837681231265 426.9999980787798 404.905876813353C429.49999814813793 404.9433768143934 431.74999821056025 399.4908766631233 432.99999824523934 398.06587662358913 " transform="rotate(9, 400, 400)"></path><path d="M378.0000001525879 402.37058483515784C378.8333335090406 401.48308481053573 380.3333335506555 398.1105847169716 382.0000002635609 398.1105847169716C383.66666697646633 398.1105847169716 384.3333336616285 402.63308484244044 386.0000003745339 402.37058483515784C387.66666708743935 402.10808482787525 388.3333337726015 396.9505846847894 390.0000004855069 396.8505846820151C391.66666719841237 396.7505846792408 392.33333388357454 401.7280848173328 394.00000059647994 401.8905848218411C395.6666673093854 402.0530848263494 396.33333399454756 397.3555846960254 398.00000070745295 397.63058470365485C399.6666674203584 397.90558471128423 400.3333341055206 403.39808486366405 402.000000818426 403.2105848584622C403.6666675313314 403.02308485326034 404.33333421649354 396.8305846814602 406.000000929399 396.7305846786859C407.66666764230445 396.63058467591156 408.33333432746656 402.3430848343949 410.000001040372 402.7305848451454C411.66666775327747 403.1180848558959 412.3333344384396 398.47808472716724 414.00000115134503 398.59058473028836C415.6666678642505 398.70308473340947 416.3333345494126 403.2455848594332 418.00000126231805 403.2705848601268C419.66666797522345 403.2955848608204 421.16666801683834 399.66058475997363 422.00000137329107 398.71058473361757 " transform="rotate(6, 400, 400)"></path><path d="M389.00000007629393 401.18529194074176C389.4166667545203 400.7415419284307 390.1666667753277 399.05529188164866 391.00000013178044 399.05529188164866C391.83333348823317 399.05529188164866 392.1666668308143 401.31654194438306 393.00000018726695 401.18529194074176C393.8333335437197 401.05404193710046 394.16666688630073 398.47529186555755 395.00000024275346 398.4252918641704C395.8333335992062 398.37529186278323 396.1666669417873 400.86404193182926 397.00000029823997 400.9452919340834C397.8333336546927 401.02654193633754 398.16666699727375 398.67779187117554 399.0000003537265 398.81529187499024C399.8333337101792 398.95279187880493 400.16666705276026 401.69904195499487 401.000000409213 401.60529195239394C401.8333337656657 401.511541949793 402.16666710824677 398.41529186389295 403.0000004646995 398.3652918625058C403.8333338211522 398.3152918611186 404.1666671637333 401.17154194036027 405.000000520186 401.3652919457355C405.83333387663873 401.5590419511108 406.1666672192198 399.23904188674646 407.0000005756725 399.295291888307C407.83333393212524 399.3515418898676 408.1666672747063 401.6227919528794 409.000000631159 401.6352919532262C409.8333339876117 401.647791953573 410.5833340084192 399.83029190314966 411.00000068664554 399.3552918899716 " transform="rotate(3, 400, 400)"></path></g></svg>